<svg width="28" height="32" viewBox="0 0 28 32" fill="none" xmlns="http://www.w3.org/2000/svg">
<path d="M3.33 25.6C2.48131 25.6 1.66738 25.2629 1.06726 24.6627C0.467147 24.0626 0.130005 23.2487 0.130005 22.4V16C0.130005 15.7162 0.242737 15.4441 0.443401 15.2434C0.644065 15.0427 0.916223 14.93 1.2 14.93H3.33C4.1787 14.93 4.99263 15.2671 5.59275 15.8673C6.19286 16.4674 6.53 17.2813 6.53 18.13V22.4C6.53 23.2487 6.19286 24.0626 5.59275 24.6627C4.99263 25.2629 4.1787 25.6 3.33 25.6ZM2.26 17.06V22.4C2.28568 22.6646 2.40897 22.9103 2.60586 23.089C2.80274 23.2677 3.05911 23.3667 3.325 23.3667C3.5909 23.3667 3.84727 23.2677 4.04415 23.089C4.24104 22.9103 4.36433 22.6646 4.39 22.4V18.13C4.39 17.8462 4.27727 17.5741 4.07661 17.3734C3.87595 17.1727 3.60379 17.06 3.32 17.06H2.26Z" fill="white"/>
<path d="M1.37 12.79H1.2C0.920265 12.7434 0.670456 12.5877 0.505452 12.3571C0.340448 12.1265 0.273744 11.8398 0.319997 11.56C0.744136 9.05026 1.85071 6.70563 3.51854 4.78287C5.18637 2.8601 7.35114 1.43336 9.77578 0.658879C12.2004 -0.115601 14.7914 -0.207948 17.265 0.391949C19.7387 0.991847 21.9995 2.26085 23.8 4.06C25.8393 6.09079 27.1895 8.71069 27.66 11.55C27.6994 11.6944 27.7082 11.8454 27.6856 11.9934C27.663 12.1413 27.6097 12.2829 27.529 12.409C27.4483 12.535 27.342 12.6427 27.2171 12.7251C27.0922 12.8076 26.9514 12.8629 26.8037 12.8875C26.6561 12.9121 26.505 12.9054 26.36 12.868C26.2151 12.8305 26.0797 12.7631 25.9625 12.67C25.8453 12.577 25.7489 12.4604 25.6796 12.3277C25.6102 12.1951 25.5695 12.0494 25.56 11.9C25.0968 9.16791 23.6814 6.688 21.5645 4.89979C19.4477 3.11157 16.7661 2.13053 13.995 2.13053C11.2239 2.13053 8.54232 3.11157 6.42545 4.89979C4.30858 6.688 2.89315 9.16791 2.43 11.9C2.38736 12.1499 2.2574 12.3765 2.06328 12.5395C1.86915 12.7025 1.62347 12.7912 1.37 12.79Z" fill="white"/>
<path d="M9.60003 6.40002C9.36719 6.39175 9.14341 6.30771 8.96269 6.16067C8.78196 6.01362 8.65417 5.81161 8.59873 5.58531C8.54329 5.35902 8.56322 5.12081 8.65551 4.90688C8.74779 4.69295 8.90738 4.51498 9.11003 4.40002C10.6247 3.63454 12.298 3.23572 13.995 3.23572C15.6921 3.23572 17.3654 3.63454 18.88 4.40002C19.0101 4.46223 19.1262 4.55007 19.2215 4.65828C19.3167 4.76649 19.3891 4.89283 19.4343 5.02972C19.4796 5.16661 19.4966 5.31122 19.4846 5.45487C19.4725 5.59852 19.4315 5.73826 19.3641 5.86568C19.2967 5.9931 19.2042 6.10559 19.0922 6.19638C18.9803 6.28718 18.8511 6.35441 18.7125 6.39404C18.5739 6.43367 18.4287 6.44489 18.2856 6.42701C18.1426 6.40914 18.0046 6.36254 17.88 6.29002C16.6716 5.67051 15.333 5.34741 13.975 5.34741C12.617 5.34741 11.2785 5.67051 10.07 6.29002C9.92391 6.36234 9.76307 6.39999 9.60003 6.40002Z" fill="#CD75EE"/>
<path d="M26.81 14.93H24.67C23.8213 14.93 23.0074 15.2671 22.4073 15.8672C21.8072 16.4674 21.47 17.2813 21.47 18.13V22.4C21.47 23.2487 21.8072 24.0626 22.4073 24.6627C23.0074 25.2628 23.8213 25.6 24.67 25.6C24.9824 25.5957 25.2925 25.5452 25.59 25.45C25.3962 26.1093 24.9945 26.6884 24.445 27.101C23.8954 27.5136 23.2273 27.7377 22.54 27.74H17C16.7488 27.028 16.2538 26.4278 15.6028 26.0455C14.9517 25.6632 14.1864 25.5234 13.4422 25.6509C12.698 25.7784 12.0229 26.1649 11.5362 26.7421C11.0494 27.3193 10.7825 28.05 10.7825 28.805C10.7825 29.56 11.0494 30.2907 11.5362 30.8679C12.0229 31.4451 12.698 31.8316 13.4422 31.959C14.1864 32.0865 14.9517 31.9467 15.6028 31.5644C16.2538 31.1821 16.7488 30.5819 17 29.87H22.54C23.9528 29.8673 25.307 29.3049 26.306 28.3059C27.305 27.3069 27.8674 25.9528 27.87 24.54V16C27.87 15.7179 27.7587 15.4473 27.5602 15.2469C27.3617 15.0465 27.0921 14.9326 26.81 14.93ZM14 29.87C13.7884 29.87 13.5815 29.8072 13.4056 29.6896C13.2296 29.5721 13.0925 29.405 13.0115 29.2094C12.9305 29.0139 12.9093 28.7988 12.9506 28.5912C12.9919 28.3837 13.0938 28.193 13.2434 28.0434C13.3931 27.8937 13.5837 27.7918 13.7913 27.7505C13.9989 27.7092 14.214 27.7304 14.4095 27.8114C14.605 27.8924 14.7721 28.0295 14.8897 28.2055C15.0073 28.3815 15.07 28.5883 15.07 28.8C15.07 29.0837 14.9573 29.3559 14.7567 29.5566C14.556 29.7572 14.2838 29.87 14 29.87ZM25.74 22.4C25.7144 22.6646 25.5911 22.9102 25.3942 23.089C25.1973 23.2677 24.9409 23.3667 24.675 23.3667C24.4091 23.3667 24.1528 23.2677 23.9559 23.089C23.759 22.9102 23.6357 22.6646 23.61 22.4V18.13C23.61 17.8462 23.7228 17.574 23.9234 17.3734C24.1241 17.1727 24.3963 17.06 24.68 17.06H25.75L25.74 22.4Z" fill="white"/>
</svg>
