<svg width="28" height="28" viewBox="0 0 28 28" fill="none" xmlns="http://www.w3.org/2000/svg">
<g clip-path="url(#clip0_701_1366)">
<path d="M23.5616 11.5166C23.5616 6.29716 19.7259 1.97365 14.7195 1.2111C15.2356 1.13245 15.7642 1.09167 16.3023 1.09167C22.0599 1.09167 26.7273 5.75911 26.7273 11.5166C26.7273 17.2742 22.0599 21.9416 16.3023 21.9416C15.7642 21.9416 15.2356 21.9008 14.7195 21.8221C19.7258 21.0595 23.5616 16.736 23.5616 11.5166Z" fill="#2F80ED"/>
<path d="M16.4562 23.0331C10.1059 23.0331 4.93963 17.8668 4.93963 11.5166C4.93963 5.1663 10.1059 0 16.4562 0C19.5332 0 22.4249 1.19374 24.5986 3.36136C26.7745 5.53106 27.9728 8.41976 27.9728 11.4952C27.9728 17.8572 22.8065 23.0331 16.4562 23.0331ZM16.4562 2.18324C11.3098 2.18324 7.12287 6.37014 7.12287 11.5166C7.12287 16.663 11.3098 20.8499 16.4562 20.8499C21.6026 20.8499 25.7895 16.6534 25.7895 11.4952C25.7895 6.36053 21.6026 2.18324 16.4562 2.18324ZM1.11897 28C0.838584 28 0.558311 27.8926 0.3449 27.6781C-0.0801764 27.2507 -0.0782661 26.5595 0.349212 26.1344L5.2615 21.2494C5.68886 20.8243 6.38002 20.8261 6.80526 21.2537C7.23034 21.6812 7.22843 22.3723 6.80095 22.7975L1.88867 27.6824C1.67575 27.8942 1.39733 28 1.11897 28Z" fill="white"/>
<path d="M16.5108 18.5575C14.5964 18.5575 12.8018 17.8066 11.4577 16.4432C10.1138 15.0799 9.38874 13.2743 9.41603 11.3588C9.44261 9.49486 10.1924 7.74156 11.5272 6.4219C12.8617 5.10246 14.6234 4.3725 16.4875 4.36655C17.4595 4.3636 18.3986 4.55283 19.2849 4.9295C19.8397 5.16534 20.0983 5.80628 19.8624 6.36115C19.6266 6.91608 18.9857 7.17452 18.4308 6.93873C17.8235 6.68056 17.1776 6.54968 16.5111 6.54968C16.5055 6.54968 16.5001 6.54973 16.4945 6.54973C13.833 6.55825 11.637 8.72958 11.599 11.3899C11.5801 12.7164 12.0821 13.9667 13.0125 14.9104C13.943 15.8544 15.1855 16.3742 16.5108 16.3742C18.7597 16.3742 20.7174 14.8545 21.2715 12.6786C21.2745 12.667 21.2824 12.6361 21.2531 12.5984C21.2299 12.5686 21.1994 12.5536 21.1622 12.5536H17.6024C16.9995 12.5536 16.5108 12.0649 16.5108 11.462C16.5108 10.8591 16.9995 10.3703 17.6024 10.3703H21.1622C21.8767 10.3703 22.5381 10.6941 22.9768 11.2585C23.4121 11.8185 23.5617 12.5325 23.3873 13.2174C22.5866 16.3616 19.7589 18.5575 16.5108 18.5575Z" fill="white"/>
</g>
<defs>
<clipPath id="clip0_701_1366">
<rect width="28" height="28" fill="white"/>
</clipPath>
</defs>
</svg>
