<svg width="28" height="28" viewBox="0 0 28 28" fill="none" xmlns="http://www.w3.org/2000/svg">
<g clip-path="url(#clip0_701_12534)">
<path d="M4.375 21.4375V15.4521C4.375 14.8149 4.66096 14.285 5.08687 13.9355L4.23795 13.2993C3.90507 13.0515 3.53631 12.9282 3.17188 12.909C2.11444 12.8533 1.09375 13.6745 1.09375 14.8786V21.4375C1.09375 24.4578 3.54216 26.9062 6.5625 26.9062H9.84375C6.82341 26.9062 4.375 24.4578 4.375 21.4375Z" fill="#EF5DA8"/>
<path d="M21.4375 28H6.5625C2.94394 28 0 25.0561 0 21.4375V14.8786C0 14.0283 0.335891 13.2413 0.94582 12.6627C1.55909 12.0809 2.39241 11.7725 3.22941 11.8167C3.82681 11.8481 4.40136 12.0574 4.89103 12.4218L11.3395 17.2543C11.3419 17.2561 11.3444 17.258 11.3468 17.2599C12.9089 18.4513 15.0911 18.4513 16.6532 17.2599C16.6557 17.258 16.6581 17.2561 16.6606 17.2543L23.1061 12.424C23.5987 12.0574 24.1732 11.8481 24.7706 11.8167C25.6076 11.772 26.441 12.0809 27.0542 12.6627C27.6641 13.2413 28 14.0283 28 14.8786V21.4375C28 25.0561 25.0561 28 21.4375 28ZM3.07141 14C2.84698 14 2.61795 14.0915 2.45137 14.2496C2.331 14.3638 2.1875 14.5656 2.1875 14.8785V21.4375C2.1875 23.8499 4.15013 25.8125 6.5625 25.8125H21.4375C23.8499 25.8125 25.8125 23.8499 25.8125 21.4375V14.8786C25.8125 14.5656 25.669 14.3638 25.5486 14.2496C25.3714 14.0815 25.1249 13.9891 24.8857 14.0011C24.718 14.01 24.5597 14.069 24.4151 14.1766L17.9762 19.002C15.6344 20.7853 12.3657 20.7853 10.0239 19.002L3.58203 14.1745C3.44034 14.069 3.28202 14.01 3.11434 14.0011C3.10013 14.0004 3.08574 14 3.07141 14ZM25.375 8.58594V6.5625C25.375 2.94394 22.4311 0 18.8125 0H9.29688C5.67831 0 2.73438 2.94394 2.73438 6.5625V8.58594C2.73438 9.19002 3.22405 9.67969 3.82812 9.67969C4.4322 9.67969 4.92188 9.19002 4.92188 8.58594V6.5625C4.92188 4.15013 6.8845 2.1875 9.29688 2.1875H18.8125C21.2249 2.1875 23.1875 4.15013 23.1875 6.5625V8.58594C23.1875 9.19002 23.6772 9.67969 24.2812 9.67969C24.8853 9.67969 25.375 9.19002 25.375 8.58594Z" fill="white"/>
<path d="M16.9531 11.6484C16.9531 10.1151 15.6679 8.91406 14.0273 8.91406C13.4973 8.91406 13.0976 8.67896 13.0976 8.36719C13.0976 8.06564 13.3429 7.82031 13.6445 7.82031C14.033 7.82031 14.5055 7.86428 15.3262 8.18344C15.889 8.40235 16.523 8.1235 16.742 7.56049C16.961 6.99748 16.682 6.3636 16.119 6.14469C15.7685 6.00841 15.4568 5.90816 15.1757 5.83406V5.63281C15.1757 5.02873 14.6861 4.53906 14.082 4.53906C13.4779 4.53906 12.9882 5.02873 12.9882 5.63281V5.71298C11.7965 6.00775 10.9101 7.0857 10.9101 8.36719C10.9101 9.92605 12.2502 11.1016 14.0273 11.1016C14.4413 11.1016 14.7656 11.3418 14.7656 11.6484C14.7656 11.95 14.5202 12.1953 14.2187 12.1953C13.9901 12.1953 13.2093 12.1208 12.3532 11.7805C11.792 11.5574 11.1559 11.8316 10.9327 12.3929C10.7096 12.9543 10.9838 13.5902 11.5451 13.8133C12.0457 14.0122 12.5424 14.1498 12.9882 14.2402V14.3828C12.9882 14.9869 13.4779 15.4766 14.082 15.4766C14.6861 15.4766 15.1757 14.9869 15.1757 14.3828V14.2096C16.2128 13.8208 16.9531 12.8196 16.9531 11.6484Z" fill="white"/>
</g>
<defs>
<clipPath id="clip0_701_12534">
<rect width="28" height="28" fill="white"/>
</clipPath>
</defs>
</svg>
