<svg width="28" height="28" viewBox="0 0 28 28" fill="none" xmlns="http://www.w3.org/2000/svg">
<g clip-path="url(#clip0_701_2761)">
<path d="M16.3516 14.9562C16.0739 15.1051 15.7399 15.1051 15.4622 14.9562L4.6227 9.36754C4.36474 9.22919 4.36583 8.85972 4.62461 8.72284L15.2578 3.0345C15.5329 2.88898 15.8624 2.88898 16.1375 3.0345L22.5272 5.13031L17.1456 2.28371C15.1783 1.24308 12.8219 1.24308 10.8545 2.28371L2.48642 6.71005C0.635929 7.68883 0.628273 10.3312 2.47302 11.3207L10.8201 15.798C12.8057 16.863 15.1944 16.863 17.18 15.798L20.1927 14.182L16.3516 14.9562Z" fill="#9EDBB7"/>
<path d="M14 17.6932C12.7301 17.6932 11.4607 17.3828 10.3031 16.7619L1.95605 12.2846C0.745669 11.6354 -0.00370142 10.38 0.000236017 9.00826C0.00422814 7.63656 0.760872 6.38549 1.97497 5.74325L10.3431 1.31697C12.633 0.105769 15.3671 0.105769 17.657 1.31697L26.025 5.74325C27.2391 6.38544 27.9958 7.6365 27.9998 9.00826C28.0037 10.38 27.2543 11.6354 26.044 12.2846L17.6969 16.7619C16.5396 17.3827 15.2696 17.693 14 17.6932ZM14 2.59625C13.0953 2.59625 12.1906 2.8144 11.3659 3.25063L2.99783 7.67692C2.49225 7.94433 2.1894 8.44444 2.18776 9.01461C2.18611 9.58477 2.48602 10.0866 2.99006 10.3569L11.3372 14.8342C13.0047 15.7286 14.9955 15.7286 16.663 14.8342L25.0101 10.3569C25.5142 10.0866 25.8141 9.58477 25.8124 9.01461C25.8108 8.44444 25.5079 7.94433 25.0024 7.67692L16.6342 3.25063C15.8094 2.8144 14.9047 2.59625 14 2.59625ZM10.8545 2.28377H10.855H10.8545ZM17.6969 26.6602L27.4231 21.4434C27.9554 21.1579 28.1555 20.4949 27.87 19.9626C27.5844 19.4303 26.9215 19.2302 26.3892 19.5157L16.6629 24.7325C14.9956 25.6269 13.0047 25.6269 11.3329 24.7302L1.60671 19.5681C1.07302 19.2849 0.410987 19.488 0.127875 20.0215C-0.155347 20.5551 0.0476493 21.2171 0.581227 21.5003L10.3031 26.6602C11.4607 27.2811 12.7301 27.5914 14 27.5914C15.2696 27.5914 16.5396 27.281 17.6969 26.6602Z" fill="white"/>
<path d="M14 22.6697C12.7301 22.6697 11.4607 22.3593 10.3031 21.7384L0.581227 16.5785C0.0476493 16.2953 -0.155347 15.6333 0.127875 15.0997C0.410987 14.5662 1.07302 14.3631 1.60671 14.6463L11.3329 19.8084C13.0046 20.7051 14.9956 20.7051 16.6629 19.8107L26.3892 14.5939C26.9215 14.3084 27.5844 14.5084 27.87 15.0408C28.1555 15.5731 27.9554 16.2361 27.4231 16.5216L17.6969 21.7384C16.5396 22.3592 15.2696 22.6697 14 22.6697Z" fill="white"/>
</g>
<defs>
<clipPath id="clip0_701_2761">
<rect width="28" height="28" fill="white"/>
</clipPath>
</defs>
</svg>
