<svg width="28" height="28" viewBox="0 0 28 28" fill="none" xmlns="http://www.w3.org/2000/svg">
<path d="M15.5312 26.409C15.062 26.7232 14.6071 26.9066 14 26.9066C12.369 26.9066 11.0469 25.5844 11.0469 23.9535V19.4691C11.0469 17.8382 12.369 16.516 14 16.516C14.6071 16.516 15.062 16.6994 15.5312 17.0136C14.7399 17.5434 14.2188 18.4453 14.2188 19.4691V23.9535C14.2188 24.9773 14.7399 25.8793 15.5312 26.409ZM24.1719 23.9535V14.3832C24.1719 13.3594 24.693 12.4575 25.4844 11.9277C25.0151 11.6135 24.5603 11.4301 23.9531 11.4301C22.3221 11.4301 21 12.7522 21 14.3832V23.9535C21 25.5844 22.3221 26.9066 23.9531 26.9066C24.5603 26.9066 25.0151 26.7232 25.4844 26.409C24.693 25.8793 24.1719 24.9773 24.1719 23.9535ZM4.26562 23.9535V13.5629C4.26562 12.5391 4.7868 11.6372 5.57812 11.1073C5.10885 10.7932 4.65402 10.6097 4.04688 10.6097C2.41593 10.6097 1.09375 11.9319 1.09375 13.5629V23.9535C1.09375 25.5844 2.41593 26.9066 4.04688 26.9066C4.65402 26.9066 5.10885 26.7232 5.57812 26.409C4.7868 25.8793 4.26562 24.9773 4.26562 23.9535Z" fill="#FCDDEC"/>
<path d="M4.04688 28.0004C1.81541 28.0004 0 26.185 0 23.9535V13.5629C0 11.3314 1.81541 9.51599 4.04688 9.51599C6.27834 9.51599 8.09375 11.3314 8.09375 13.5629V23.9535C8.09375 26.185 6.27834 28.0004 4.04688 28.0004ZM4.04688 11.7035C3.02159 11.7035 2.1875 12.5376 2.1875 13.5629V23.9535C2.1875 24.9788 3.02159 25.8129 4.04688 25.8129C5.07216 25.8129 5.90625 24.9788 5.90625 23.9535V13.5629C5.90625 12.5376 5.07216 11.7035 4.04688 11.7035ZM14 28.0004C11.7685 28.0004 9.95312 26.185 9.95312 23.9535V19.4691C9.95312 17.2376 11.7685 15.4222 14 15.4222C16.2315 15.4222 18.0469 17.2376 18.0469 19.4691V23.9535C18.0469 26.185 16.2315 28.0004 14 28.0004ZM14 17.6097C12.9747 17.6097 12.1406 18.4438 12.1406 19.4691V23.9535C12.1406 24.9788 12.9747 25.8129 14 25.8129C15.0253 25.8129 15.8594 24.9788 15.8594 23.9535V19.4691C15.8594 18.4439 15.0253 17.6097 14 17.6097ZM23.9531 28.0004C21.7217 28.0004 19.9062 26.185 19.9062 23.9535V14.3832C19.9062 12.1517 21.7217 10.3363 23.9531 10.3363C26.1846 10.3363 28 12.1517 28 14.3832V23.9535C28 26.185 26.1846 28.0004 23.9531 28.0004ZM23.9531 12.5238C22.9278 12.5238 22.0938 13.3579 22.0938 14.3832V23.9535C22.0938 24.9788 22.9278 25.8129 23.9531 25.8129C24.9784 25.8129 25.8125 24.9788 25.8125 23.9535V14.3832C25.8125 13.358 24.9784 12.5238 23.9531 12.5238Z" fill="#F1416C"/>
<path d="M15.0343 13.3414C14.2 13.3414 13.3618 13.0712 12.6631 12.5186C12.6436 12.5031 5.66182 6.16195 5.66182 6.16195C5.04047 5.68994 4.17783 5.71931 3.58983 6.23387L1.8629 7.94203C1.43339 8.36684 0.740827 8.36302 0.316178 7.93361C-0.108689 7.50409 -0.10486 6.81158 0.3246 6.38683C0.3246 6.38683 2.09719 4.63409 2.11004 4.6225C3.50145 3.37108 5.57673 3.30541 7.04454 4.4662C7.06407 4.48168 14.0457 10.8228 14.0457 10.8228C14.7218 11.3361 15.687 11.2471 16.2571 10.6135C16.264 10.6059 16.2709 10.5984 16.278 10.591L22.3406 4.22279C22.7571 3.78529 23.4494 3.76823 23.8869 4.18478C24.3244 4.60128 24.3415 5.29357 23.9249 5.73112L17.8721 12.089C17.1215 12.9159 16.081 13.3413 15.0343 13.3414ZM28 6.23474V3.28162C28 1.47233 26.528 0.000366211 24.7187 0.000366211H21.7656C21.1615 0.000366211 20.6718 0.490038 20.6718 1.09412C20.6718 1.69819 21.1615 2.18787 21.7656 2.18787H24.7187C25.3218 2.18787 25.8125 2.67852 25.8125 3.28162V6.23474C25.8125 6.83882 26.3021 7.32849 26.9062 7.32849C27.5103 7.32849 28 6.83882 28 6.23474Z" fill="#F1416C"/>
</svg>
