<svg width="28" height="28" viewBox="0 0 28 28" fill="none" xmlns="http://www.w3.org/2000/svg">
<g clip-path="url(#clip0_525_9497)">
<path d="M14.1094 1.09387C11.1701 1.09387 8.73259 3.24118 8.27918 6.05261C8.08405 6.02838 7.88532 6.01575 7.68363 6.01575C5.04086 6.01575 2.89847 8.15813 2.89847 10.8009C2.89847 11.4132 3.01364 11.9986 3.22321 12.5367C1.92569 13.2157 1.0502 14.5913 1.09542 16.1675C1.15345 18.1891 2.75218 19.8607 4.7695 20.0054C5.02992 20.0241 5.28525 20.0171 5.53353 19.9871C5.53742 19.8153 5.55147 19.6436 5.57023 19.4707C5.57411 19.3857 5.58166 19.3008 5.59418 19.2157C4.81642 18.5739 4.32035 17.6029 4.32035 16.5157C4.32035 15.3385 5.13021 14.7799 6.0214 14.1456C6.31147 13.9392 6.43025 13.5704 6.31245 13.2345C6.18623 12.8744 6.00297 11.7813 6.01637 11.3751C6.07106 9.71503 7.1641 8.80481 8.53129 8.95339C8.72291 8.97423 9.40694 9.1961 9.6409 9.23722C10.1936 9.3344 10.7157 8.97183 10.8282 8.42205C11.3275 5.97938 13.4879 3.50018 16.0782 3.50018C17.4264 3.50018 18.6582 3.99816 19.6 4.82C18.7326 2.63715 16.6013 1.09387 14.1094 1.09387V1.09387Z" fill="#24695C" fill-opacity="0.1"/>
<path d="M5.08594 21.1095C2.28156 21.1095 0 18.8402 0 16.0509C0 14.4736 0.726031 13.0152 1.94141 12.0666C1.85052 11.6532 1.80469 11.23 1.80469 10.8009C1.80469 7.64669 4.30134 5.06473 7.42241 4.92774C7.80981 3.6789 8.54509 2.55244 9.54915 1.68947C10.8166 0.600099 12.4361 0.00012207 14.1094 0.00012207C15.9353 0.00012207 17.6634 0.699138 18.9754 1.96833C20.0332 2.99158 20.73 4.29703 20.9922 5.7194C24.9158 6.07563 28 9.38368 28 13.3986C28 16.8646 25.6675 19.9234 22.3276 20.8369C21.7451 20.9964 21.1434 20.6531 20.9841 20.0704C20.8247 19.4877 21.1678 18.8862 21.7505 18.7269C24.1421 18.0727 25.8125 15.8816 25.8125 13.3986C25.8125 10.353 23.3347 7.87512 20.2891 7.87512C20.2191 7.87512 20.143 7.87687 20.0564 7.88043C19.766 7.8929 19.4817 7.7879 19.2682 7.59004C19.0545 7.39218 18.9287 7.11726 18.9184 6.82627C18.8263 4.22517 16.714 2.18762 14.1094 2.18762C11.7342 2.18762 9.7364 3.88633 9.35895 6.22673C9.26521 6.80779 8.72856 7.2104 8.14439 7.13799C7.99198 7.11907 7.83694 7.1095 7.68359 7.1095C5.64812 7.1095 3.99219 8.76543 3.99219 10.8009C3.99219 11.263 4.07635 11.7135 4.24238 12.1398C4.44456 12.6591 4.22406 13.2473 3.73034 13.5057C2.77873 14.0038 2.1875 14.9791 2.1875 16.0509C2.1875 17.6341 3.4877 18.922 5.08594 18.922C5.69002 18.922 6.17969 19.4117 6.17969 20.0157C6.17969 20.6198 5.69002 21.1095 5.08594 21.1095V21.1095Z" fill="#24695C"/>
<path d="M13.5078 25.047C10.6431 25.047 8.3125 22.7164 8.3125 19.8517C8.3125 16.987 10.6431 14.6564 13.5078 14.6564C16.3725 14.6564 18.7031 16.987 18.7031 19.8517C18.7031 22.7164 16.3725 25.047 13.5078 25.047ZM13.5078 16.8439C11.8493 16.8439 10.5 18.1932 10.5 19.8517C10.5 21.5102 11.8493 22.8595 13.5078 22.8595C15.1663 22.8595 16.5156 21.5102 16.5156 19.8517C16.5156 18.1932 15.1663 16.8439 13.5078 16.8439ZM21.2813 27.6798C21.7084 27.2526 21.7084 26.5601 21.2813 26.133L19.75 24.6017C19.3229 24.1746 18.6303 24.1746 18.2032 24.6017C17.7761 25.0289 17.7761 25.7214 18.2032 26.1485L19.7344 27.6798C19.948 27.8933 20.2279 28.0001 20.5078 28.0001C20.7877 28.0001 21.0677 27.8933 21.2813 27.6798Z" fill="#6DC893"/>
</g>
<defs>
<clipPath id="clip0_525_9497">
<rect width="28" height="28" fill="white"/>
</clipPath>
</defs>
</svg>
