<svg width="28" height="28" viewBox="0 0 28 28" fill="none" xmlns="http://www.w3.org/2000/svg">
<g clip-path="url(#clip0_701_11189)">
<path d="M16.3516 14.9566C16.0739 15.1055 15.7399 15.1055 15.4622 14.9566L4.6227 9.36797C4.36474 9.22961 4.36583 8.86015 4.62461 8.72327L15.2578 3.03493C15.5329 2.88941 15.8624 2.88941 16.1375 3.03493L22.5272 5.13074L17.1456 2.28414C15.1783 1.2435 12.8219 1.2435 10.8545 2.28414L2.48642 6.71047C0.635929 7.68925 0.628273 10.3316 2.47302 11.3211L10.8201 15.7984C12.8057 16.8634 15.1944 16.8634 17.18 15.7984L20.1927 14.1824L16.3516 14.9566Z" fill="#DCCBFF"/>
<path d="M14 17.6935C12.7301 17.6936 11.4607 17.3831 10.3031 16.7623L1.95605 12.285C0.745669 11.6358 -0.00370142 10.3803 0.000236017 9.00863C0.00422814 7.63692 0.760872 6.38586 1.97497 5.74362L10.3431 1.31734C12.633 0.106136 15.3671 0.106136 17.657 1.31734L26.025 5.74362C27.2391 6.3858 27.9958 7.63687 27.9998 9.00863C28.0037 10.3803 27.2543 11.6358 26.044 12.285L17.6969 16.7623C16.5396 17.3831 15.2696 17.6934 14 17.6935ZM14 2.59662C13.0953 2.59662 12.1906 2.81476 11.3659 3.251L2.99783 7.67728C2.49225 7.9447 2.1894 8.44481 2.18776 9.01497C2.18611 9.58513 2.48602 10.0869 2.99006 10.3573L11.3372 14.8346C13.0047 15.729 14.9955 15.729 16.663 14.8346L25.0101 10.3573C25.5142 10.0869 25.8141 9.58513 25.8124 9.01497C25.8108 8.44481 25.5079 7.9447 25.0024 7.67728L16.6342 3.251C15.8094 2.81476 14.9047 2.59662 14 2.59662ZM10.8545 2.28414H10.855H10.8545ZM17.6969 26.6605L27.4231 21.4438C27.9554 21.1582 28.1555 20.4952 27.87 19.963C27.5844 19.4306 26.9215 19.2305 26.3892 19.5161L16.6629 24.7328C14.9956 25.6272 13.0047 25.6272 11.3329 24.7306L1.60671 19.5685C1.07302 19.2853 0.410987 19.4883 0.127875 20.0219C-0.155347 20.5554 0.0476493 21.2175 0.581227 21.5007L10.3031 26.6605C11.4607 27.2815 12.7301 27.5918 14 27.5918C15.2696 27.5918 16.5396 27.2813 17.6969 26.6605Z" fill="#7239EA"/>
<path d="M14 22.6701C12.7301 22.6701 11.4607 22.3597 10.3031 21.7388L0.581227 16.579C0.0476493 16.2957 -0.155347 15.6337 0.127875 15.1001C0.410987 14.5666 1.07302 14.3635 1.60671 14.6468L11.3329 19.8089C13.0046 20.7055 14.9956 20.7056 16.6629 19.8111L26.3892 14.5943C26.9215 14.3089 27.5844 14.5088 27.87 15.0412C28.1555 15.5735 27.9554 16.2365 27.4231 16.522L17.6969 21.7388C16.5396 22.3596 15.2696 22.6701 14 22.6701Z" fill="#7239EA"/>
</g>
<defs>
<clipPath id="clip0_701_11189">
<rect width="28" height="28" fill="white" transform="translate(0 0.000366211)"/>
</clipPath>
</defs>
</svg>
