<svg width="28" height="28" viewBox="0 0 28 28" fill="none" xmlns="http://www.w3.org/2000/svg">
<g clip-path="url(#clip0_525_18501)">
<path d="M23.5616 11.5167C23.5616 6.29729 19.7259 1.97377 14.7195 1.21122C15.2356 1.13257 15.7642 1.0918 16.3023 1.0918C22.0599 1.0918 26.7273 5.75923 26.7273 11.5168C26.7273 17.2743 22.0599 21.9417 16.3023 21.9417C15.7642 21.9417 15.2356 21.9009 14.7195 21.8222C19.7258 21.0596 23.5616 16.7362 23.5616 11.5167V11.5167Z" fill="#24695C" fill-opacity="0.1"/>
<path d="M16.4562 23.0333C10.1059 23.0333 4.93963 17.867 4.93963 11.5167C4.93963 5.16642 10.1059 0.00012207 16.4562 0.00012207C19.5332 0.00012207 22.4249 1.19386 24.5986 3.36149C26.7745 5.53119 27.9728 8.41988 27.9728 11.4953C27.9728 17.8574 22.8065 23.0333 16.4562 23.0333ZM16.4562 2.18336C11.3098 2.18336 7.12287 6.37026 7.12287 11.5167C7.12287 16.6631 11.3098 20.85 16.4562 20.85C21.6026 20.85 25.7895 16.6535 25.7895 11.4953C25.7895 6.36065 21.6026 2.18336 16.4562 2.18336ZM1.11897 28.0001C0.838584 28.0001 0.558311 27.8928 0.3449 27.6783C-0.0801764 27.2508 -0.0782661 26.5596 0.349212 26.1345L5.2615 21.2495C5.68886 20.8244 6.38002 20.8262 6.80526 21.2538C7.23034 21.6813 7.22843 22.3724 6.80095 22.7976L1.88867 27.6826C1.67575 27.8943 1.39733 28.0001 1.11897 28.0001V28.0001Z" fill="#24695C"/>
<path d="M16.5108 18.5577C14.5964 18.5577 12.8018 17.8068 11.4577 16.4434C10.1138 15.0801 9.38874 13.2744 9.41603 11.359C9.44261 9.49505 10.1924 7.74174 11.5272 6.42209C12.8617 5.10265 14.6234 4.37268 16.4875 4.36673C17.4595 4.36379 18.3986 4.55302 19.2849 4.92968C19.8397 5.16552 20.0983 5.80647 19.8624 6.36134C19.6266 6.91626 18.9857 7.1747 18.4308 6.93891C17.8235 6.68074 17.1776 6.54986 16.5111 6.54986C16.5055 6.54986 16.5001 6.54991 16.4945 6.54991C13.833 6.55843 11.637 8.72977 11.599 11.3901C11.5801 12.7166 12.0821 13.9669 13.0125 14.9106C13.943 15.8546 15.1855 16.3744 16.5108 16.3744C18.7597 16.3744 20.7174 14.8547 21.2715 12.6788C21.2745 12.6672 21.2824 12.6363 21.2531 12.5986C21.2299 12.5688 21.1994 12.5538 21.1622 12.5538H17.6024C16.9995 12.5538 16.5108 12.065 16.5108 11.4621C16.5108 10.8592 16.9995 10.3705 17.6024 10.3705H21.1622C21.8767 10.3705 22.5381 10.6943 22.9768 11.2587C23.4121 11.8187 23.5617 12.5326 23.3873 13.2176C22.5866 16.3618 19.7589 18.5577 16.5108 18.5577V18.5577Z" fill="#24695C"/>
</g>
<defs>
<clipPath id="clip0_525_18501">
<rect width="28" height="28" fill="white"/>
</clipPath>
</defs>
</svg>
