<svg width="28" height="28" viewBox="0 0 28 28" fill="none" xmlns="http://www.w3.org/2000/svg">
<g clip-path="url(#clip0_525_17842)">
<path d="M23.5616 11.5168C23.5616 6.29741 19.7259 1.97389 14.7195 1.21134C15.2356 1.13269 15.7642 1.09192 16.3023 1.09192C22.0599 1.09192 26.7273 5.75935 26.7273 11.5169C26.7273 17.2744 22.0599 21.9418 16.3023 21.9418C15.7642 21.9418 15.2356 21.901 14.7195 21.8223C19.7258 21.0597 23.5616 16.7363 23.5616 11.5168Z" fill="#FCDDEC"/>
<path d="M16.4562 23.0334C10.1059 23.0334 4.93963 17.8671 4.93963 11.5168C4.93963 5.16654 10.1059 0.000244141 16.4562 0.000244141C19.5332 0.000244141 22.4249 1.19398 24.5986 3.36161C26.7745 5.53131 27.9728 8.42 27.9728 11.4954C27.9728 17.8575 22.8065 23.0334 16.4562 23.0334ZM16.4562 2.18348C11.3098 2.18348 7.12287 6.37038 7.12287 11.5168C7.12287 16.6632 11.3098 20.8501 16.4562 20.8501C21.6026 20.8501 25.7895 16.6536 25.7895 11.4954C25.7895 6.36077 21.6026 2.18348 16.4562 2.18348ZM1.11897 28.0002C0.838584 28.0002 0.558311 27.8929 0.3449 27.6784C-0.0801764 27.2509 -0.0782661 26.5597 0.349212 26.1346L5.2615 21.2496C5.68886 20.8245 6.38002 20.8263 6.80526 21.2539C7.23034 21.6814 7.22843 22.3726 6.80095 22.7977L1.88867 27.6827C1.67575 27.8945 1.39733 28.0002 1.11897 28.0002Z" fill="#F1416C"/>
<path d="M16.5108 18.5578C14.5964 18.5578 12.8018 17.8069 11.4577 16.4435C10.1138 15.0802 9.38874 13.2746 9.41603 11.3591C9.44261 9.49517 10.1924 7.74186 11.5272 6.42221C12.8617 5.10277 14.6234 4.3728 16.4875 4.36686C17.4595 4.36391 18.3986 4.55314 19.2849 4.9298C19.8397 5.16565 20.0983 5.80659 19.8624 6.36146C19.6266 6.91638 18.9857 7.17482 18.4308 6.93903C17.8235 6.68087 17.1776 6.54998 16.5111 6.54998C16.5055 6.54998 16.5001 6.55004 16.4945 6.55004C13.833 6.55855 11.637 8.72989 11.599 11.3902C11.5801 12.7168 12.0821 13.967 13.0125 14.9107C13.943 15.8547 15.1855 16.3745 16.5108 16.3745C18.7597 16.3745 20.7174 14.8548 21.2715 12.6789C21.2745 12.6673 21.2824 12.6364 21.2531 12.5987C21.2299 12.5689 21.1994 12.5539 21.1622 12.5539H17.6024C16.9995 12.5539 16.5108 12.0652 16.5108 11.4623C16.5108 10.8594 16.9995 10.3706 17.6024 10.3706H21.1622C21.8767 10.3706 22.5381 10.6944 22.9768 11.2588C23.4121 11.8188 23.5617 12.5328 23.3873 13.2177C22.5866 16.3619 19.7589 18.5578 16.5108 18.5578Z" fill="#F1416C"/>
</g>
<defs>
<clipPath id="clip0_525_17842">
<rect width="28" height="28" fill="white" transform="translate(0 0.000244141)"/>
</clipPath>
</defs>
</svg>
