<svg width="28" height="28" viewBox="0 0 28 28" fill="none" xmlns="http://www.w3.org/2000/svg">
<g clip-path="url(#clip0_525_19869)">
<path d="M23.5616 11.5171C23.5616 6.29765 19.7259 1.97414 14.7195 1.21159C15.2356 1.13294 15.7642 1.09216 16.3023 1.09216C22.0599 1.09216 26.7273 5.75959 26.7273 11.5171C26.7273 17.2746 22.0599 21.9421 16.3023 21.9421C15.7642 21.9421 15.2356 21.9012 14.7195 21.8226C19.7258 21.06 23.5616 16.7365 23.5616 11.5171Z" fill="#DCCBFF"/>
<path d="M16.4562 23.0336C10.1059 23.0336 4.93963 17.8673 4.93963 11.5171C4.93963 5.16679 10.1059 0.000488281 16.4562 0.000488281C19.5332 0.000488281 22.4249 1.19423 24.5986 3.36185C26.7745 5.53155 27.9728 8.42025 27.9728 11.4957C27.9728 17.8577 22.8065 23.0336 16.4562 23.0336ZM16.4562 2.18372C11.3098 2.18372 7.12287 6.37062 7.12287 11.5171C7.12287 16.6635 11.3098 20.8504 16.4562 20.8504C21.6026 20.8504 25.7895 16.6539 25.7895 11.4957C25.7895 6.36102 21.6026 2.18372 16.4562 2.18372ZM1.11897 28.0005C0.838584 28.0005 0.558311 27.8931 0.3449 27.6786C-0.0801764 27.2511 -0.0782661 26.56 0.349212 26.1349L5.2615 21.2499C5.68886 20.8248 6.38002 20.8266 6.80526 21.2542C7.23034 21.6817 7.22843 22.3728 6.80095 22.7979L1.88867 27.6829C1.67575 27.8947 1.39733 28.0005 1.11897 28.0005Z" fill="#7239EA"/>
<path d="M16.5108 18.558C14.5964 18.558 12.8018 17.8072 11.4577 16.4437C10.1138 15.0805 9.38874 13.2748 9.41603 11.3593C9.44261 9.49541 10.1924 7.74211 11.5272 6.42245C12.8617 5.10301 14.6234 4.37305 16.4875 4.3671C17.4595 4.36415 18.3986 4.55338 19.2849 4.93005C19.8397 5.16589 20.0983 5.80683 19.8624 6.3617C19.6266 6.91663 18.9857 7.17507 18.4308 6.93928C17.8235 6.68111 17.1776 6.55023 16.5111 6.55023C16.5055 6.55023 16.5001 6.55028 16.4945 6.55028C13.833 6.5588 11.637 8.73013 11.599 11.3905C11.5801 12.717 12.0821 13.9673 13.0125 14.911C13.943 15.855 15.1855 16.3748 16.5108 16.3748C18.7597 16.3748 20.7174 14.8551 21.2715 12.6792C21.2745 12.6675 21.2824 12.6367 21.2531 12.5989C21.2299 12.5692 21.1994 12.5541 21.1622 12.5541H17.6024C16.9995 12.5541 16.5108 12.0654 16.5108 11.4625C16.5108 10.8596 16.9995 10.3709 17.6024 10.3709H21.1622C21.8767 10.3709 22.5381 10.6947 22.9768 11.2591C23.4121 11.8191 23.5617 12.533 23.3873 13.2179C22.5866 16.3621 19.7589 18.558 16.5108 18.558Z" fill="#7239EA"/>
</g>
<defs>
<clipPath id="clip0_525_19869">
<rect width="28" height="28" fill="white" transform="translate(0 0.000488281)"/>
</clipPath>
</defs>
</svg>
