<svg width="28" height="28" viewBox="0 0 28 28" fill="none" xmlns="http://www.w3.org/2000/svg">
<path d="M8.66667 9.68018H5.38112C3.00709 9.68018 1.08252 7.75813 1.08252 5.38721C1.08252 3.01629 3.00709 1.09424 5.38112 1.09424H8.66667C6.29264 1.09424 4.36807 3.01629 4.36807 5.38721C4.36807 7.75813 6.29259 9.68018 8.66667 9.68018ZM4.36807 22.6138C4.36807 20.2428 6.29264 18.3208 8.66667 18.3208H5.38112C3.00709 18.3208 1.08252 20.2428 1.08252 22.6138C1.08252 24.9847 3.00709 26.9067 5.38112 26.9067H8.66667C6.29259 26.9067 4.36807 24.9847 4.36807 22.6138ZM4.36807 14.0278C4.36807 11.6569 6.29264 9.73486 8.66667 9.73486H5.38112C3.00709 9.73486 1.08252 11.6569 1.08252 14.0278C1.08252 16.3988 3.00709 18.3208 5.38112 18.3208H8.66667C6.29259 18.3208 4.36807 16.3988 4.36807 14.0278Z" fill="#FCDDEC"/>
<path d="M10.6107 28.0005H5.38116C0.211724 27.9894 -1.94678 21.383 2.12649 18.3208C-0.72214 16.2335 -0.701222 11.7691 2.1629 9.70752C-1.95565 6.66318 0.191079 0.0121914 5.38116 0.000488281H19.29C24.4803 0.012957 26.624 6.65935 22.5126 9.70424C22.9114 10.0022 23.2723 10.3585 23.5841 10.7677C23.9504 11.2484 23.8572 11.9346 23.3759 12.3005C22.8946 12.6663 22.2075 12.5733 21.8411 12.0926C21.2289 11.2893 20.299 10.8286 19.29 10.8286H5.38116C1.13617 10.99 1.1394 17.0672 5.38116 17.2271H11.4321C12.8836 17.2808 12.8825 19.3613 11.4321 19.4146H5.38116C1.13617 19.5759 1.1394 25.6531 5.38116 25.813H10.6107C12.0622 25.8667 12.0611 27.9472 10.6107 28.0005ZM5.38116 2.18799C1.13617 2.34937 1.1394 8.42657 5.38116 8.58643H19.29C23.535 8.42504 23.5318 2.34784 19.29 2.18799H5.38116ZM19.1531 6.5083H16.5794C15.1279 6.45454 15.129 4.37407 16.5794 4.3208H19.1531C20.6047 4.37456 20.6035 6.45504 19.1531 6.5083ZM5.51806 12.9614C6.12293 12.9614 6.61324 13.4511 6.61324 14.0552C6.55958 15.5044 4.47632 15.5041 4.42287 14.0552C4.42287 13.4511 4.91319 12.9614 5.51806 12.9614ZM4.42287 22.6411C4.42287 23.2452 4.91319 23.7349 5.51806 23.7349C6.96923 23.6813 6.96885 21.6008 5.51806 21.5474C4.91319 21.5474 4.42287 22.037 4.42287 22.6411Z" fill="#F1416C"/>
<path d="M5.46335 4.3208C6.06822 4.3208 6.55853 4.81047 6.55853 5.41455C6.50487 6.86382 4.42161 6.86344 4.36816 5.41455C4.36816 4.81047 4.85848 4.3208 5.46335 4.3208ZM18.1675 28.0005H14.9915C13.5399 27.9467 13.541 25.8663 14.9915 25.813H18.1675C18.3788 25.813 18.5508 25.6412 18.5508 25.4302V22.2583C18.6046 20.8086 20.6878 20.8097 20.7412 22.2583V25.4302C20.7412 26.8475 19.5866 28.0005 18.1675 28.0005ZM23.9181 26.9616C23.5294 26.9616 23.1529 26.7545 22.9545 26.3892C22.6661 25.8583 22.8633 25.1944 23.3949 24.9063C27.6118 22.5969 25.9725 16.2207 21.1791 16.188C17.8547 16.1309 15.4378 19.821 17.0178 22.8212C17.2811 23.365 17.0531 24.0191 16.5086 24.2821C15.964 24.5451 15.3092 24.3174 15.0458 23.7735C12.7496 19.3714 16.2752 13.9083 21.1792 14.0005C28.2328 14.0482 30.6351 23.4344 24.4394 26.829C24.2735 26.919 24.0946 26.9616 23.9181 26.9616Z" fill="#F1416C"/>
</svg>
