<svg width="32" height="32" viewBox="0 0 32 32" fill="none" xmlns="http://www.w3.org/2000/svg">
<path d="M18.5917 5.6885C16.853 4.59906 14.7925 4 12.6641 4C6.87014 4 2 8.38517 2 14C2 15.9686 2.602 17.8558 3.74552 19.4856L2.14809 24.5804C1.97933 25.1186 2.37614 25.6667 2.92985 25.6667C3.05645 25.6667 3.18387 25.6369 3.30145 25.5762L8.15945 23.0669C8.35616 23.1529 8.55534 23.233 8.75653 23.3073C7.63177 21.5239 7.03125 19.4767 7.03125 17.3333C7.03125 10.9502 12.3183 6.04289 18.5917 5.6885Z" fill="#FF82A0"/>
<path d="M28.2545 22.8189C29.398 21.189 30 19.3019 30 17.3333C30 11.7164 25.1278 7.33325 19.3359 7.33325C13.542 7.33325 8.67188 11.7184 8.67188 17.3333C8.67188 22.9501 13.5441 27.3333 19.3359 27.3333C20.89 27.3333 22.4385 27.0115 23.8403 26.4L28.6985 28.9094C28.9934 29.0617 29.3495 29.0192 29.6015 28.8016C29.8536 28.584 29.9524 28.2339 29.852 27.9137L28.2545 22.8189ZM16 18.1666C15.547 18.1666 15.1797 17.7935 15.1797 17.3333C15.1797 16.873 15.547 16.4999 16 16.4999C16.453 16.4999 16.8203 16.873 16.8203 17.3333C16.8203 17.7935 16.453 18.1666 16 18.1666ZM19.2812 18.1666C18.8282 18.1666 18.4609 17.7935 18.4609 17.3333C18.4609 16.873 18.8282 16.4999 19.2812 16.4999C19.7343 16.4999 20.1016 16.873 20.1016 17.3333C20.1016 17.7935 19.7343 18.1666 19.2812 18.1666ZM22.5625 18.1666C22.1095 18.1666 21.7422 17.7935 21.7422 17.3333C21.7422 16.873 22.1095 16.4999 22.5625 16.4999C23.0155 16.4999 23.3828 16.873 23.3828 17.3333C23.3828 17.7935 23.0155 18.1666 22.5625 18.1666Z" fill="#F1416C"/>
</svg>
