<svg width="32" height="32" viewBox="0 0 32 32" fill="none" xmlns="http://www.w3.org/2000/svg">
<path d="M18.5917 5.68899C16.853 4.59954 14.7925 4.00049 12.6641 4.00049C6.87014 4.00049 2 8.38565 2 14.0005C2 15.9691 2.602 17.8563 3.74552 19.4861L2.14809 24.5809C1.97933 25.119 2.37614 25.6672 2.92985 25.6672C3.05645 25.6672 3.18387 25.6374 3.30145 25.5767L8.15945 23.0674C8.35616 23.1534 8.55534 23.2335 8.75653 23.3078C7.63177 21.5244 7.03125 19.4772 7.03125 17.3338C7.03125 10.9507 12.3183 6.04338 18.5917 5.68899Z" fill="#7A6BD9"/>
<path d="M28.2545 22.8194C29.398 21.1895 30 19.3024 30 17.3337C30 11.7169 25.1278 7.33374 19.3359 7.33374C13.542 7.33374 8.67188 11.7189 8.67188 17.3337C8.67188 22.9506 13.5441 27.3337 19.3359 27.3337C20.89 27.3337 22.4385 27.012 23.8403 26.4005L28.6985 28.9099C28.9934 29.0622 29.3495 29.0197 29.6015 28.8021C29.8536 28.5845 29.9524 28.2344 29.852 27.9142L28.2545 22.8194ZM16 18.1671C15.547 18.1671 15.1797 17.794 15.1797 17.3337C15.1797 16.8735 15.547 16.5004 16 16.5004C16.453 16.5004 16.8203 16.8735 16.8203 17.3337C16.8203 17.794 16.453 18.1671 16 18.1671ZM19.2812 18.1671C18.8282 18.1671 18.4609 17.794 18.4609 17.3337C18.4609 16.8735 18.8282 16.5004 19.2812 16.5004C19.7343 16.5004 20.1016 16.8735 20.1016 17.3337C20.1016 17.794 19.7343 18.1671 19.2812 18.1671ZM22.5625 18.1671C22.1095 18.1671 21.7422 17.794 21.7422 17.3337C21.7422 16.8735 22.1095 16.5004 22.5625 16.5004C23.0155 16.5004 23.3828 16.8735 23.3828 17.3337C23.3828 17.794 23.0155 18.1671 22.5625 18.1671Z" fill="#7239EA"/>
</svg>
