<svg xmlns="http://www.w3.org/2000/svg" xmlns:xlink="http://www.w3.org/1999/xlink" width="500" zoomAndPan="magnify" viewBox="0 0 375 374.999991" height="500" preserveAspectRatio="xMidYMid meet" version="1.0"><path fill="#dff0fe" d="M 334.996094 149.382812 L 331.566406 148.003906 L 332.109375 144.335938 C 332.585938 141.140625 332.8125 138.476562 332.8125 135.9375 C 332.8125 104.914062 307.585938 79.6875 276.5625 79.6875 C 269.679688 79.6875 262.867188 80.980469 256.285156 83.511719 L 252.300781 85.058594 L 250.398438 81.234375 C 238.40625 57.148438 214.304688 42.1875 187.5 42.1875 C 156.957031 42.1875 130.882812 61.480469 121.238281 89.070312 C 121.191406 89.070312 121.144531 89.0625 121.085938 89.0625 C 92.605469 89.0625 69.523438 112.144531 69.523438 140.625 C 69.523438 142.492188 69.636719 144.328125 69.824219 146.148438 C 66.835938 145.648438 63.851562 145.3125 60.9375 145.3125 C 29.914062 145.3125 4.6875 170.539062 4.6875 201.5625 C 4.6875 232.585938 29.914062 257.8125 60.9375 257.8125 L 314.0625 257.8125 C 345.085938 257.8125 370.3125 232.585938 370.3125 201.5625 C 370.3125 178.480469 356.445312 157.996094 334.996094 149.382812 Z M 334.996094 149.382812 " fill-opacity="1" fill-rule="nonzero"/><path fill="#4788c7" d="M 314.0625 262.5 L 60.9375 262.5 C 27.335938 262.5 0 235.164062 0 201.5625 C 0 167.960938 27.335938 140.625 60.9375 140.625 C 62.195312 140.625 63.476562 140.679688 64.847656 140.792969 C 64.847656 140.738281 64.847656 140.679688 64.847656 140.625 C 64.847656 110.664062 88.398438 86.089844 117.964844 84.460938 C 129.242188 56.242188 156.789062 37.5 187.5 37.5 C 216.09375 37.5 241.800781 53.457031 254.585938 79.144531 C 261.730469 76.386719 269.117188 75 276.5625 75 C 310.164062 75 337.5 102.335938 337.5 135.9375 C 337.5 138.703125 337.265625 141.589844 336.742188 145.03125 C 359.980469 154.367188 375 176.550781 375 201.5625 C 375 235.164062 347.664062 262.5 314.0625 262.5 Z M 60.9375 150 C 32.503906 150 9.375 173.136719 9.375 201.5625 C 9.375 229.988281 32.503906 253.125 60.9375 253.125 L 314.0625 253.125 C 342.496094 253.125 365.625 229.988281 365.625 201.5625 C 365.625 180.402344 352.921875 161.625 333.242188 153.722656 L 326.390625 150.976562 L 327.46875 143.652344 C 327.917969 140.679688 328.125 138.226562 328.125 135.9375 C 328.125 107.511719 304.996094 84.375 276.5625 84.375 C 270.28125 84.375 264.019531 85.554688 257.972656 87.890625 L 250.011719 90.976562 L 246.195312 83.324219 C 235.011719 60.835938 212.511719 46.875 187.5 46.875 C 159.664062 46.875 134.8125 64.453125 125.664062 90.617188 L 124.566406 93.757812 L 121.238281 93.757812 C 121.238281 93.757812 121.226562 93.757812 121.21875 93.757812 C 95.230469 93.757812 74.210938 114.777344 74.210938 140.625 C 74.210938 142.332031 74.316406 144 74.492188 145.648438 L 75.140625 151.773438 L 69.066406 150.769531 C 65.886719 150.242188 63.300781 150 60.9375 150 Z M 60.9375 150 " fill-opacity="1" fill-rule="nonzero"/><path fill="#dff0fe" d="M 103.125 243.75 L 271.875 243.75 L 271.875 262.5 L 103.125 262.5 Z M 103.125 243.75 " fill-opacity="1" fill-rule="nonzero"/><path fill="#4788c7" d="M 187.5 281.25 L 234.375 328.125 L 281.25 281.25 Z M 187.5 281.25 " fill-opacity="1" fill-rule="nonzero"/><path fill="#4788c7" d="M 93.75 187.5 L 140.625 140.625 L 187.5 187.5 Z M 93.75 187.5 " fill-opacity="1" fill-rule="nonzero"/><path fill="#4788c7" d="M 103.125 262.5 L 84.375 262.5 C 81.789062 262.5 79.6875 260.398438 79.6875 257.8125 C 79.6875 255.226562 81.789062 253.125 84.375 253.125 L 103.125 253.125 C 105.710938 253.125 107.8125 255.226562 107.8125 257.8125 C 107.8125 260.398438 105.710938 262.5 103.125 262.5 Z M 103.125 262.5 " fill-opacity="1" fill-rule="nonzero"/><path fill="#4788c7" d="M 290.625 262.5 L 271.875 262.5 C 269.289062 262.5 267.1875 260.398438 267.1875 257.8125 C 267.1875 255.226562 269.289062 253.125 271.875 253.125 L 290.625 253.125 C 293.210938 253.125 295.3125 255.226562 295.3125 257.8125 C 295.3125 260.398438 293.210938 262.5 290.625 262.5 Z M 290.625 262.5 " fill-opacity="1" fill-rule="nonzero"/></svg>