<svg width="20" height="20" viewBox="0 0 20 20" fill="none" xmlns="http://www.w3.org/2000/svg">
<g clip-path="url(#clip0_701_7617)">
<path d="M16.875 5.625C17.3695 5.625 17.8528 5.47838 18.2639 5.20368C18.6751 4.92897 18.9955 4.53853 19.1847 4.08171C19.3739 3.62489 19.4234 3.12223 19.327 2.63728C19.2305 2.15232 18.9924 1.70687 18.6428 1.35723C18.2931 1.0076 17.8477 0.769501 17.3627 0.673038C16.8778 0.576575 16.3751 0.626083 15.9183 0.815302C15.4615 1.00452 15.071 1.32495 14.7963 1.73608C14.5216 2.1472 14.375 2.63055 14.375 3.125C14.3772 3.56989 14.4996 4.0059 14.7294 4.38688L13.5069 5.60938C12.5126 4.81049 11.2754 4.37501 10 4.37501C8.72457 4.37501 7.48736 4.81049 6.49313 5.60938L5.27063 4.38688C5.50038 4.0059 5.62283 3.56989 5.625 3.125C5.625 2.63055 5.47838 2.1472 5.20368 1.73608C4.92897 1.32495 4.53853 1.00452 4.08171 0.815302C3.62489 0.626083 3.12223 0.576575 2.63728 0.673038C2.15232 0.769501 1.70687 1.0076 1.35723 1.35723C1.0076 1.70687 0.769501 2.15232 0.673038 2.63728C0.576575 3.12223 0.626083 3.62489 0.815302 4.08171C1.00452 4.53853 1.32495 4.92897 1.73608 5.20368C2.1472 5.47838 2.63055 5.625 3.125 5.625C3.56989 5.62283 4.0059 5.50038 4.38688 5.27063L5.60938 6.49313C4.81049 7.48736 4.37501 8.72457 4.37501 10C4.37501 11.2754 4.81049 12.5126 5.60938 13.5069L4.38688 14.7294C4.0059 14.4996 3.56989 14.3772 3.125 14.375C2.63055 14.375 2.1472 14.5216 1.73608 14.7963C1.32495 15.071 1.00452 15.4615 0.815302 15.9183C0.626083 16.3751 0.576575 16.8778 0.673038 17.3627C0.769501 17.8477 1.0076 18.2931 1.35723 18.6428C1.70687 18.9924 2.15232 19.2305 2.63728 19.327C3.12223 19.4234 3.62489 19.3739 4.08171 19.1847C4.53853 18.9955 4.92897 18.6751 5.20368 18.2639C5.47838 17.8528 5.625 17.3695 5.625 16.875C5.62283 16.4301 5.50038 15.9941 5.27063 15.6131L6.49313 14.3906C7.48944 15.1858 8.72529 15.6208 10 15.625C11.2733 15.6124 12.5065 15.1784 13.5069 14.3906L14.7294 15.6131C14.4996 15.9941 14.3772 16.4301 14.375 16.875C14.375 17.3695 14.5216 17.8528 14.7963 18.2639C15.071 18.6751 15.4615 18.9955 15.9183 19.1847C16.3751 19.3739 16.8778 19.4234 17.3627 19.327C17.8477 19.2305 18.2931 18.9924 18.6428 18.6428C18.9924 18.2931 19.2305 17.8477 19.327 17.3627C19.4234 16.8778 19.3739 16.3751 19.1847 15.9183C18.9955 15.4615 18.6751 15.071 18.2639 14.7963C17.8528 14.5216 17.3695 14.375 16.875 14.375C16.4301 14.3772 15.9941 14.4996 15.6131 14.7294L14.3906 13.5069C15.1895 12.5126 15.625 11.2754 15.625 10C15.625 8.72457 15.1895 7.48736 14.3906 6.49313L15.6131 5.27063C15.9941 5.50038 16.4301 5.62283 16.875 5.625V5.625ZM16.875 1.875C17.2065 1.875 17.5245 2.0067 17.7589 2.24112C17.9933 2.47554 18.125 2.79348 18.125 3.125C18.125 3.45652 17.9933 3.77446 17.7589 4.00889C17.5245 4.24331 17.2065 4.375 16.875 4.375C16.5449 4.37047 16.2296 4.23733 15.9961 4.00388C15.7627 3.77043 15.6295 3.45511 15.625 3.125C15.625 2.79348 15.7567 2.47554 15.9911 2.24112C16.2255 2.0067 16.5435 1.875 16.875 1.875V1.875ZM14.375 10C14.3758 11.0105 14.0251 11.9897 13.3831 12.77C13.0557 12.0546 12.5044 11.4651 11.8125 11.0906C12.1504 10.7359 12.3767 10.2897 12.4632 9.80749C12.5496 9.32526 12.4925 8.82825 12.2989 8.37821C12.1053 7.92818 11.7837 7.54495 11.3741 7.27614C10.9645 7.00733 10.485 6.86479 9.99505 6.86623C9.50514 6.86768 9.02644 7.01303 8.61844 7.28425C8.21044 7.55546 7.89112 7.94058 7.70015 8.39175C7.50919 8.84292 7.45499 9.34025 7.5443 9.82196C7.63361 10.3037 7.86249 10.7485 8.2025 11.1013C7.51377 11.4826 6.96203 12.0704 6.625 12.7819C6.1784 12.2404 5.86861 11.5995 5.7218 10.9132C5.57498 10.2269 5.59544 9.51528 5.78144 8.83852C5.96745 8.16176 6.31355 7.53968 6.79052 7.02481C7.26749 6.50993 7.86134 6.11736 8.52193 5.88024C9.18252 5.64312 9.89046 5.56841 10.586 5.66242C11.2815 5.75642 11.9442 6.01639 12.5182 6.42036C13.0921 6.82434 13.5604 7.36046 13.8836 7.98349C14.2068 8.60651 14.3753 9.29815 14.375 10V10ZM8.75 9.375C8.75 9.12778 8.82331 8.8861 8.96067 8.68054C9.09802 8.47498 9.29324 8.31476 9.52165 8.22015C9.75006 8.12554 10.0014 8.10079 10.2439 8.14902C10.4863 8.19725 10.7091 8.3163 10.8839 8.49112C11.0587 8.66594 11.1778 8.88866 11.226 9.13114C11.2742 9.37362 11.2495 9.62495 11.1549 9.85336C11.0602 10.0818 10.9 10.277 10.6945 10.4143C10.4889 10.5517 10.2472 10.625 10 10.625C9.66848 10.625 9.35054 10.4933 9.11612 10.2589C8.8817 10.0245 8.75 9.70652 8.75 9.375ZM1.875 3.125C1.875 2.79348 2.0067 2.47554 2.24112 2.24112C2.47554 2.0067 2.79348 1.875 3.125 1.875C3.45652 1.875 3.77446 2.0067 4.00889 2.24112C4.24331 2.47554 4.375 2.79348 4.375 3.125C4.37063 3.45516 4.23753 3.77057 4.00405 4.00405C3.77057 4.23753 3.45516 4.37063 3.125 4.375C2.79348 4.375 2.47554 4.24331 2.24112 4.00889C2.0067 3.77446 1.875 3.45652 1.875 3.125ZM3.125 18.125C2.79348 18.125 2.47554 17.9933 2.24112 17.7589C2.0067 17.5245 1.875 17.2065 1.875 16.875C1.875 16.5435 2.0067 16.2255 2.24112 15.9911C2.47554 15.7567 2.79348 15.625 3.125 15.625C3.45506 15.6297 3.77029 15.7629 4.0037 15.9963C4.23712 16.2297 4.37032 16.5449 4.375 16.875C4.375 17.2065 4.24331 17.5245 4.00889 17.7589C3.77446 17.9933 3.45652 18.125 3.125 18.125ZM7.61563 13.6631C7.76717 13.1474 8.08163 12.6947 8.51195 12.3726C8.94227 12.0506 9.46532 11.8765 10.0028 11.8765C10.5403 11.8765 11.0634 12.0506 11.4937 12.3726C11.924 12.6947 12.2385 13.1474 12.39 13.6631C11.6808 14.1286 10.8511 14.3765 10.0028 14.3765C9.15455 14.3765 8.32479 14.1286 7.61563 13.6631V13.6631ZM18.125 16.875C18.125 17.2065 17.9933 17.5245 17.7589 17.7589C17.5245 17.9933 17.2065 18.125 16.875 18.125C16.5435 18.125 16.2255 17.9933 15.9911 17.7589C15.7567 17.5245 15.625 17.2065 15.625 16.875C15.6295 16.5449 15.7627 16.2296 15.9961 15.9961C16.2296 15.7627 16.5449 15.6295 16.875 15.625C17.2065 15.625 17.5245 15.7567 17.7589 15.9911C17.9933 16.2255 18.125 16.5435 18.125 16.875Z" fill="#24695C"/>
</g>
<defs>
<clipPath id="clip0_701_7617">
<rect width="20" height="20" fill="white"/>
</clipPath>
</defs>
</svg>
