<svg width="22" height="22" viewBox="0 0 22 22" fill="none" xmlns="http://www.w3.org/2000/svg">
<g clip-path="url(#clip0_701_7516)">
<path d="M11.086 0.859375C8.77648 0.859375 6.86132 2.54654 6.50507 4.75552C6.35176 4.73649 6.19561 4.72656 6.03714 4.72656C3.96067 4.72656 2.27737 6.40986 2.27737 8.48633C2.27737 8.96741 2.36786 9.42734 2.53252 9.85016C1.51304 10.3837 0.825155 11.4645 0.86069 12.7029C0.90628 14.2914 2.16243 15.6047 3.74746 15.7184C3.95208 15.7331 4.1527 15.7276 4.34778 15.7041C4.35083 15.5691 4.36187 15.4342 4.37661 15.2983C4.37966 15.2316 4.38559 15.1648 4.39543 15.0979C3.78433 14.5936 3.39456 13.8308 3.39456 12.9766C3.39456 12.0516 4.03088 11.6127 4.7311 11.1143C4.95901 10.9521 5.05234 10.6624 4.95978 10.3984C4.86061 10.1155 4.71662 9.25667 4.72715 8.9375C4.77012 7.63314 5.62893 6.91797 6.70315 7.03471C6.85372 7.05109 7.39117 7.22541 7.57499 7.25772C8.00923 7.33408 8.4195 7.0492 8.50784 6.61723C8.90019 4.69799 10.5976 2.75004 12.6328 2.75004C13.6922 2.75004 14.66 3.14132 15.4 3.78705C14.7185 2.07195 13.0439 0.859375 11.086 0.859375Z" fill="#24695C" fill-opacity="0.1"/>
<path d="M3.99609 16.5859C1.79266 16.5859 0 14.8029 0 12.6113C0 11.372 0.570453 10.2261 1.52539 9.4808C1.45398 9.156 1.41797 8.8235 1.41797 8.48633C1.41797 6.00802 3.37962 3.97934 5.83189 3.8717C6.13628 2.89047 6.714 2.00539 7.5029 1.32735C8.49875 0.47141 9.77122 0 11.0859 0C12.5206 0 13.8783 0.549227 14.9093 1.54645C15.7404 2.35043 16.2879 3.37614 16.4939 4.49371C19.5767 4.77361 22 7.37279 22 10.5273C22 13.2507 20.1673 15.654 17.5431 16.3717C17.0854 16.4971 16.6127 16.2274 16.4875 15.7695C16.3623 15.3117 16.6319 14.8391 17.0897 14.7139C18.9688 14.1999 20.2812 12.4783 20.2812 10.5273C20.2812 8.13437 18.3344 6.1875 15.9414 6.1875C15.8864 6.1875 15.8266 6.18888 15.7586 6.19167C15.5304 6.20146 15.3071 6.11897 15.1393 5.9635C14.9714 5.80804 14.8725 5.59204 14.8644 5.3634C14.7921 3.31968 13.1324 1.71875 11.0859 1.71875C9.21976 1.71875 7.65003 3.05345 7.35346 4.89234C7.27981 5.34888 6.85816 5.66521 6.39916 5.60832C6.27941 5.59346 6.15759 5.58594 6.03711 5.58594C4.43781 5.58594 3.13672 6.88703 3.13672 8.48633C3.13672 8.84941 3.20285 9.20335 3.3333 9.53833C3.49216 9.94632 3.31891 10.4085 2.93098 10.6116C2.18328 11.0029 1.71875 11.7692 1.71875 12.6113C1.71875 13.8552 2.74033 14.8672 3.99609 14.8672C4.47073 14.8672 4.85547 15.2519 4.85547 15.7266C4.85547 16.2012 4.47073 16.5859 3.99609 16.5859Z" fill="#24695C"/>
<path d="M10.6133 19.6797C8.36245 19.6797 6.53125 17.8485 6.53125 15.5977C6.53125 13.3468 8.36245 11.5156 10.6133 11.5156C12.8641 11.5156 14.6953 13.3468 14.6953 15.5977C14.6953 17.8485 12.8641 19.6797 10.6133 19.6797ZM10.6133 13.2344C9.31017 13.2344 8.25 14.2945 8.25 15.5977C8.25 16.9008 9.31017 17.9609 10.6133 17.9609C11.9164 17.9609 12.9766 16.9008 12.9766 15.5977C12.9766 14.2945 11.9164 13.2344 10.6133 13.2344ZM16.721 21.7483C17.0566 21.4127 17.0566 20.8685 16.721 20.533L15.5179 19.3298C15.1822 18.9942 14.6381 18.9942 14.3025 19.3298C13.9669 19.6655 13.9669 20.2096 14.3025 20.5452L15.5056 21.7483C15.6734 21.9161 15.8934 22 16.1133 22C16.3332 22 16.5532 21.9161 16.721 21.7483Z" fill="#6DC893"/>
</g>
<defs>
<clipPath id="clip0_701_7516">
<rect width="22" height="22" fill="white"/>
</clipPath>
</defs>
</svg>
