<svg width="20" height="20" viewBox="0 0 20 20" fill="none" xmlns="http://www.w3.org/2000/svg">
<g clip-path="url(#clip0_701_7604)">
<path d="M3.125 15.3125V11.0372C3.125 10.582 3.32926 10.2035 3.63348 9.95386L3.02711 9.49944C2.78934 9.32249 2.52594 9.23437 2.26562 9.22065C1.51031 9.18089 0.78125 9.76749 0.78125 10.6275V15.3125C0.78125 17.4698 2.53012 19.2187 4.6875 19.2187H7.03125C4.87387 19.2187 3.125 17.4698 3.125 15.3125Z" fill="#24695C" fill-opacity="0.1"/>
<path d="M15.3125 20H4.6875C2.10281 20 0 17.8972 0 15.3125V10.6275C0 10.0202 0.239922 9.45809 0.675586 9.04477C1.11363 8.62918 1.70887 8.40891 2.30672 8.44047C2.73344 8.46293 3.14383 8.61242 3.49359 8.8727L8.09961 12.3245C8.10137 12.3258 8.10313 12.3271 8.10488 12.3285C9.22066 13.1795 10.7794 13.1795 11.8952 12.3285C11.8969 12.3271 11.8987 12.3258 11.9004 12.3245L16.5044 8.87426C16.8562 8.61242 17.2666 8.46293 17.6933 8.44047C18.2911 8.40855 18.8864 8.62918 19.3245 9.04477C19.7601 9.45809 20 10.0202 20 10.6275V15.3125C20 17.8972 17.8972 20 15.3125 20ZM2.19387 10C2.03355 10 1.86996 10.0654 1.75098 10.1783C1.665 10.2598 1.5625 10.404 1.5625 10.6275V15.3125C1.5625 17.0356 2.96438 18.4375 4.6875 18.4375H15.3125C17.0356 18.4375 18.4375 17.0356 18.4375 15.3125V10.6275C18.4375 10.404 18.335 10.2599 18.249 10.1783C18.1225 10.0582 17.9463 9.99219 17.7755 10.0008C17.6557 10.0071 17.5426 10.0493 17.4394 10.1262L12.8401 13.5729C11.1675 14.8466 8.83262 14.8466 7.15996 13.5729L2.55859 10.1246C2.45738 10.0493 2.3443 10.0071 2.22453 10.0008C2.21438 10.0003 2.2041 10 2.19387 10V10ZM18.125 6.13281V4.6875C18.125 2.10281 16.0222 0 13.4375 0H6.64062C4.05594 0 1.95312 2.10281 1.95312 4.6875V6.13281C1.95312 6.5643 2.30289 6.91406 2.73438 6.91406C3.16586 6.91406 3.51562 6.5643 3.51562 6.13281V4.6875C3.51562 2.96438 4.9175 1.5625 6.64062 1.5625H13.4375C15.1606 1.5625 16.5625 2.96438 16.5625 4.6875V6.13281C16.5625 6.5643 16.9123 6.91406 17.3438 6.91406C17.7752 6.91406 18.125 6.5643 18.125 6.13281Z" fill="#24695C"/>
<path d="M12.1094 8.32031C12.1094 7.22508 11.1914 6.36719 10.0195 6.36719C9.64096 6.36719 9.35545 6.19926 9.35545 5.97656C9.35545 5.76117 9.53068 5.58594 9.74607 5.58594C10.0236 5.58594 10.3611 5.61734 10.9473 5.84531C11.3493 6.00168 11.8022 5.8025 11.9586 5.40035C12.115 4.9982 11.9158 4.54543 11.5136 4.38906C11.2633 4.29172 11.0406 4.22012 10.8398 4.16719V4.02344C10.8398 3.59195 10.4901 3.24219 10.0586 3.24219C9.62709 3.24219 9.27732 3.59195 9.27732 4.02344V4.0807C8.42607 4.29125 7.79295 5.06121 7.79295 5.97656C7.79295 7.09004 8.75017 7.92969 10.0195 7.92969C10.3152 7.92969 10.5469 8.10129 10.5469 8.32031C10.5469 8.5357 10.3716 8.71094 10.1562 8.71094C9.99295 8.71094 9.43525 8.6577 8.82373 8.41465C8.42287 8.25531 7.96853 8.45113 7.80912 8.85207C7.64974 9.25305 7.8456 9.70727 8.24654 9.86664C8.60408 10.0087 8.95889 10.107 9.27732 10.1716V10.2734C9.27732 10.7049 9.62709 11.0547 10.0586 11.0547C10.4901 11.0547 10.8398 10.7049 10.8398 10.2734V10.1497C11.5806 9.87199 12.1094 9.15684 12.1094 8.32031V8.32031Z" fill="#9EDBB7"/>
</g>
<defs>
<clipPath id="clip0_701_7604">
<rect width="20" height="20" fill="white"/>
</clipPath>
</defs>
</svg>
