<svg width="20" height="20" viewBox="0 0 20 20" fill="none" xmlns="http://www.w3.org/2000/svg">
<g clip-path="url(#clip0_701_7548)">
<path d="M4.64844 19.2188C2.49105 19.2188 0.742188 17.4699 0.742188 15.3125V4.6875C0.742188 2.53012 2.49105 0.78125 4.64844 0.78125C4.64844 0.78125 4.83379 1.44738 4.83289 1.45469C3.80211 2.15719 3.125 3.34223 3.125 4.68586V15.3141C3.125 16.6063 3.75133 17.7516 4.71605 18.4623C4.7134 18.7143 4.64844 19.2188 4.64844 19.2188V19.2188ZM15.4991 17.3546C14.8193 16.6748 14.3808 15.7938 14.1924 14.8511L13.6075 11.6648C13.5339 11.6465 11.1719 11.1719 11.1719 11.1719L11.6143 13.3853C11.8027 14.328 12.2661 15.1939 12.9459 15.8737L15.6845 18.6123L16.2158 18.0712L15.4991 17.3546Z" fill="#6DC893"/>
<path d="M16.1719 10.2344C15.7404 10.2344 15.3906 9.88461 15.3906 9.45312V4.6875C15.3906 2.96438 13.9887 1.5625 12.2656 1.5625H8.59375C8.16227 1.5625 7.8125 1.21273 7.8125 0.78125C7.8125 0.349766 8.16227 0 8.59375 0H12.2656C14.8503 0 16.9531 2.10281 16.9531 4.6875V9.45312C16.9531 9.88461 16.6034 10.2344 16.1719 10.2344ZM12.6562 19.2188C12.6562 18.7873 12.3065 18.4375 11.875 18.4375H8.59375C8.16227 18.4375 7.8125 18.7873 7.8125 19.2188C7.8125 19.6502 8.16227 20 8.59375 20H11.875C12.3065 20 12.6562 19.6502 12.6562 19.2188ZM6.25 19.2188V0.78125C6.25 0.349766 5.90023 0 5.46875 0H4.6875C2.10281 0 0 2.10281 0 4.6875V15.3125C0 17.8972 2.10281 20 4.6875 20H5.46875C5.90023 20 6.25 19.6502 6.25 19.2188ZM4.6875 18.4375C2.96438 18.4375 1.5625 17.0356 1.5625 15.3125V4.6875C1.5625 2.96438 2.96438 1.5625 4.6875 1.5625V18.4375Z" fill="#24695C"/>
<path d="M17.1484 19.9999C16.3868 19.9999 15.6707 19.7033 15.1321 19.1647L12.3934 16.4261C11.602 15.6346 11.0676 14.636 10.8482 13.5384L10.4058 11.325C10.3546 11.0688 10.4348 10.8041 10.6195 10.6194C10.8041 10.4347 11.0689 10.3544 11.325 10.4057L13.5384 10.8481C14.6361 11.0675 15.6347 11.6018 16.4262 12.3934L19.1648 15.132C19.7034 15.6706 20 16.3867 20 17.1484C20 17.91 19.7034 18.6261 19.1648 19.1647C18.6262 19.7033 17.9101 19.9999 17.1484 19.9999ZM12.1676 12.1676L12.3804 13.2321C12.5391 14.0262 12.9257 14.7486 13.4983 15.3212L16.2369 18.0598C16.4804 18.3033 16.8041 18.4374 17.1484 18.4374C17.4927 18.4374 17.8165 18.3033 18.0599 18.0599C18.3034 17.8164 18.4375 17.4927 18.4375 17.1484C18.4375 16.8041 18.3034 16.4803 18.0599 16.2369L15.3213 13.4983C14.7487 12.9256 14.0263 12.5391 13.2322 12.3804L12.1676 12.1676Z" fill="#24695C"/>
<path d="M13.0469 6.05469H8.59375C8.16227 6.05469 7.8125 5.70492 7.8125 5.27344C7.8125 4.84195 8.16227 4.49219 8.59375 4.49219H13.0469C13.4784 4.49219 13.8281 4.84195 13.8281 5.27344C13.8281 5.70492 13.4784 6.05469 13.0469 6.05469ZM13.8281 8.00781C13.8281 7.57633 13.4784 7.22656 13.0469 7.22656H8.59375C8.16227 7.22656 7.8125 7.57633 7.8125 8.00781C7.8125 8.4393 8.16227 8.78906 8.59375 8.78906H13.0469C13.4784 8.78906 13.8281 8.4393 13.8281 8.00781Z" fill="#6DC893"/>
</g>
<defs>
<clipPath id="clip0_701_7548">
<rect width="20" height="20" fill="white"/>
</clipPath>
</defs>
</svg>
