<svg width="24" height="24" viewBox="0 0 24 24" fill="none" xmlns="http://www.w3.org/2000/svg">
<g clip-path="url(#clip0_701_7534)">
<path d="M18.8296 10.2261C18.8296 6.49799 16.0898 3.40977 12.5138 2.86509C12.8825 2.80891 13.2601 2.77979 13.6444 2.77979C17.7569 2.77979 21.0908 6.11366 21.0908 10.2262C21.0908 14.3387 17.7569 17.6726 13.6444 17.6726C13.2601 17.6726 12.8825 17.6434 12.5138 17.5872C16.0898 17.0425 18.8296 13.9543 18.8296 10.2261Z" fill="#F0F0F0"/>
<path d="M13.7544 18.4522C9.21853 18.4522 5.52831 14.762 5.52831 10.2261C5.52831 5.69021 9.21853 2 13.7544 2C15.9523 2 18.0178 2.85267 19.5704 4.40097C21.1246 5.95076 21.9806 8.01411 21.9806 10.2108C21.9806 14.7552 18.2903 18.4522 13.7544 18.4522ZM13.7544 3.55945C10.0784 3.55945 7.08776 6.5501 7.08776 10.2261C7.08776 13.9021 10.0784 16.8928 13.7544 16.8928C17.4305 16.8928 20.4211 13.8953 20.4211 10.2108C20.4211 6.54324 17.4305 3.55945 13.7544 3.55945ZM2.79926 22C2.59899 22 2.39879 21.9233 2.24636 21.7701C1.94273 21.4648 1.9441 20.9711 2.24944 20.6674L5.75821 17.1781C6.06347 16.8745 6.55716 16.8758 6.8609 17.1812C7.16453 17.4865 7.16316 17.9802 6.85782 18.2839L3.34905 21.7732C3.19696 21.9244 2.99809 22 2.79926 22V22Z" fill="#24695C"/>
<path d="M13.7933 15.2554C12.4259 15.2554 11.144 14.719 10.184 13.7451C9.22403 12.7714 8.70614 11.4816 8.72563 10.1134C8.74461 8.78206 9.28017 7.5297 10.2336 6.58709C11.1868 5.64463 12.4452 5.12323 13.7767 5.11898C14.4709 5.11688 15.1417 5.25204 15.7748 5.52109C16.1711 5.68955 16.3558 6.14736 16.1874 6.5437C16.0189 6.94007 15.5611 7.12467 15.1647 6.95625C14.7309 6.77185 14.2696 6.67836 13.7935 6.67836C13.7895 6.67836 13.7857 6.6784 13.7817 6.6784C11.8806 6.68448 10.312 8.23543 10.2849 10.1357C10.2714 11.0832 10.63 11.9763 11.2945 12.6503C11.9592 13.3246 12.8466 13.6959 13.7933 13.6959C15.3997 13.6959 16.798 12.6104 17.1938 11.0562C17.196 11.0479 17.2016 11.0258 17.1806 10.9989C17.1641 10.9776 17.1423 10.9669 17.1158 10.9669H14.573C14.1424 10.9669 13.7933 10.6178 13.7933 10.1871C13.7933 9.75649 14.1424 9.4074 14.573 9.4074H17.1158C17.6261 9.4074 18.0985 9.63867 18.4119 10.0418C18.7228 10.4418 18.8297 10.9518 18.7051 11.441C18.1332 13.6869 16.1134 15.2554 13.7933 15.2554V15.2554Z" fill="#6DC893"/>
</g>
<defs>
<clipPath id="clip0_701_7534">
<rect width="20" height="20" fill="white" transform="translate(2 2)"/>
</clipPath>
</defs>
</svg>
