<svg width="20" height="20" viewBox="0 0 20 20" fill="none" xmlns="http://www.w3.org/2000/svg">
<g clip-path="url(#clip0_701_7573)">
<path d="M10.5469 5.27344C10.5469 2.36566 8.18121 0 5.27344 0C2.36566 0 0 2.36566 0 5.27344C0 8.18121 2.36566 10.5469 5.27344 10.5469C8.18121 10.5469 10.5469 8.18121 10.5469 5.27344ZM4.54996 8.37828C4.28824 7.69555 4.12484 6.81664 4.0773 5.85938H6.46949C6.42195 6.81664 6.25859 7.69555 5.99684 8.37828C5.7166 9.10957 5.41066 9.375 5.27344 9.375C5.13621 9.375 4.83027 9.10957 4.54996 8.37828V8.37828ZM5.27344 1.17188C5.41066 1.17188 5.7166 1.4373 5.99691 2.16859C6.25863 2.85133 6.42203 3.73023 6.46957 4.6875H4.07738C4.12492 3.73023 4.28828 2.85133 4.55004 2.16859C4.83027 1.4373 5.13621 1.17188 5.27344 1.17188V1.17188ZM7.01211 8.98766C7.3766 8.13172 7.58875 7.01191 7.6425 5.85938H9.33297C9.13367 7.24656 8.23773 8.4116 7.01211 8.98766ZM9.33297 4.6875H7.6425C7.58875 3.53496 7.3766 2.41516 7.01211 1.55922C8.23773 2.13527 9.13367 3.30031 9.33297 4.6875ZM3.53477 1.55922C3.17027 2.41516 2.95812 3.53496 2.90437 4.6875H1.21391C1.4132 3.30031 2.30914 2.13527 3.53477 1.55922ZM1.21391 5.85938H2.90437C2.95812 7.01191 3.17027 8.13172 3.53477 8.98766C2.30914 8.4116 1.4132 7.24656 1.21391 5.85938Z" fill="#24695C"/>
<path d="M14.7266 9.45312C11.8188 9.45312 9.45312 11.8188 9.45312 14.7266C9.45312 17.6343 11.8188 20 14.7266 20C17.6343 20 20 17.6343 20 14.7266C20 11.8188 17.6343 9.45312 14.7266 9.45312ZM18.7861 14.1406H17.018C16.9728 13.1059 16.7975 11.9332 16.4033 10.9837C17.6607 11.5491 18.5834 12.7302 18.7861 14.1406V14.1406ZM14.7266 18.8281C14.6626 18.8281 14.3623 18.6603 14.0614 17.8394C13.8102 17.1544 13.6534 16.2727 13.6079 15.3125H15.8452C15.7997 16.2727 15.6429 17.1544 15.3918 17.8394C15.0908 18.6603 14.7905 18.8281 14.7266 18.8281V18.8281ZM13.6079 14.1406C13.6534 13.1804 13.8102 12.2987 14.0614 11.6137C14.3623 10.7928 14.6626 10.625 14.7266 10.625C14.7905 10.625 15.0908 10.7928 15.3918 11.6137C15.6429 12.2987 15.7997 13.1804 15.8452 14.1406H13.6079ZM13.0498 10.9837C12.6558 11.9328 12.4803 13.1051 12.4351 14.1406H10.667C10.8697 12.7302 11.7925 11.5491 13.0498 10.9837V10.9837ZM10.667 15.3125H12.4351C12.4803 16.3473 12.6557 17.5199 13.0498 18.4695C11.7925 17.904 10.8697 16.723 10.667 15.3125V15.3125ZM16.4033 18.4695C16.7973 17.5204 16.9728 16.348 17.018 15.3125H18.7861C18.5834 16.723 17.6607 17.904 16.4033 18.4695V18.4695Z" fill="#24695C"/>
<path d="M11.1719 2.38281H12.3418C13.311 2.38281 14.0996 3.17137 14.0996 4.14062V4.72656H12.9668C12.4866 4.72656 12.2095 5.27523 12.4962 5.66164L14.2353 8.00539C14.4695 8.32113 14.9422 8.32098 15.1764 8.00543L16.9158 5.66168C17.202 5.27605 16.9264 4.72656 16.4453 4.72656H15.2715V4.14062C15.2715 2.5252 13.9572 1.21094 12.3418 1.21094H11.1719C10.8483 1.21094 10.5859 1.47328 10.5859 1.79687C10.5859 2.12047 10.8483 2.38281 11.1719 2.38281V2.38281ZM14.7059 6.67301L14.1312 5.89844H15.2808L14.7059 6.67301Z" fill="#6DC893"/>
<path d="M8.82807 17.6563H7.65814C6.68889 17.6563 5.90033 16.8677 5.90033 15.8985V15.3125H7.03314C7.51334 15.3125 7.79045 14.7639 7.50369 14.3775L5.76463 12.0337C5.52518 11.711 5.05291 11.7246 4.82357 12.0337L3.08412 14.3774C2.79791 14.7631 3.0735 15.3125 3.55463 15.3125H4.72846V15.8985C4.72846 17.5139 6.04271 18.8282 7.65814 18.8282H8.82807C9.15166 18.8282 9.414 18.5658 9.414 18.2422C9.414 17.9186 9.15166 17.6563 8.82807 17.6563V17.6563ZM5.29404 13.3661L5.86877 14.1407H4.71916L5.29404 13.3661Z" fill="#6DC893"/>
</g>
<defs>
<clipPath id="clip0_701_7573">
<rect width="20" height="20" fill="white"/>
</clipPath>
</defs>
</svg>
