<svg width="20" height="20" viewBox="0 0 20 20" fill="none" xmlns="http://www.w3.org/2000/svg">
<path d="M3.57561 0C1.6094 0 0 1.60382 0 3.57003V16.4244C0 18.3906 1.6094 20 3.57561 20H16.43C18.3962 20 20 18.3906 20 16.4244V3.57003C20 1.60382 18.3962 0 16.43 0H3.57561ZM3.57561 1.42857H16.43C17.6295 1.42857 18.5714 2.37054 18.5714 3.57003V16.4244C18.5714 17.6239 17.6295 18.5714 16.43 18.5714H3.57561C2.37612 18.5714 1.42857 17.6239 1.42857 16.4244V3.57003C1.42857 2.37054 2.37612 1.42857 3.57561 1.42857V1.42857ZM12.1596 3.56027C11.7812 3.56891 11.4753 3.87119 11.4621 4.24944C11.4479 4.64297 11.7549 4.97371 12.1484 4.98884L13.9216 5.04883L10.9249 8.09849C10.6465 8.38006 10.6503 8.8344 10.9333 9.11133C11.2153 9.38714 11.6675 9.38214 11.9434 9.10016L14.9205 6.07282L14.9777 7.81808C14.9928 8.21101 15.3227 8.51781 15.7157 8.50446C16.1091 8.49157 16.418 8.16275 16.4063 7.76925L16.2905 4.36523C16.2905 3.90158 16.0654 3.67606 15.6013 3.67606C14.4553 3.63708 13.3028 3.59726 12.1596 3.56027V3.56027ZM8.07059 10.9528L5.08231 13.9411L5.02511 12.1791C5.00998 11.7862 4.6801 11.4794 4.28711 11.4927C3.89365 11.5056 3.5848 11.8345 3.59654 12.228L3.71233 15.632C3.71233 16.0663 4.00735 16.3211 4.40151 16.3211L7.80552 16.4369C8.1985 16.4487 8.52709 16.1407 8.54074 15.7478C8.55487 15.3542 8.24785 15.0235 7.85435 15.0084L6.09375 14.9498L9.08064 11.9629C9.37826 11.6653 9.35411 11.2319 9.08064 10.9487C8.78754 10.6556 8.35402 10.6694 8.07059 10.9529V10.9528Z" fill="#24695C"/>
</svg>
