<svg width="20" height="20" viewBox="0 0 20 20" fill="none" xmlns="http://www.w3.org/2000/svg">
<g clip-path="url(#clip0_701_7685)">
<path d="M3.12531 7.28988C3.09481 4.11367 5.39059 1.44293 8.40606 0.887461C8.02438 0.817852 7.63031 0.78125 7.22656 0.78125C3.65863 0.78125 0.747266 3.71563 0.781562 7.28988L0.78125 13.6719L0.888086 13.5742C1.49145 12.9709 2.30855 12.6648 3.12504 12.6983L3.12531 7.28988Z" fill="#24695C" fill-opacity="0.1"/>
<path d="M19.9997 12.84C20.0205 10.5309 18.9245 8.32962 17.0673 6.95087C16.7209 6.69372 16.2315 6.76603 15.9743 7.11247C15.7172 7.45892 15.7895 7.94825 16.1359 8.20544C17.5944 9.28814 18.4547 11.0167 18.4373 12.8293C18.4373 12.8318 18.4373 12.8343 18.4373 12.8368L18.4375 17.7466C17.4539 17.3381 16.3233 17.3579 15.3341 17.8536C14.561 18.2411 13.7103 18.4375 12.8048 18.4375C10.9824 18.4375 9.3163 17.6124 8.24353 16.1736C7.98568 15.8277 7.49615 15.7564 7.15025 16.0143C6.80435 16.2722 6.73298 16.7617 6.99095 17.1076C8.36161 18.9459 10.4855 20 12.8055 20C13.9555 20 15.0419 19.7478 16.0342 19.2505C16.8718 18.8306 17.8868 19.0007 18.5595 19.6735C18.5678 19.6817 18.8552 20 19.2189 20C19.8017 20 20 19.5284 20 19.2187L19.9997 12.84Z" fill="#24695C"/>
<path d="M7.20094 14.4531C9.12367 14.4531 10.9346 13.7129 12.3004 12.3687C13.67 11.0207 14.4343 9.21969 14.4528 7.29738C14.4715 5.34582 13.7296 3.51148 12.3636 2.13223C11.0017 0.757226 9.17734 0 7.22656 0C5.28973 0 3.46809 0.762266 2.09727 2.14637C0.727344 3.52949 -0.0172656 5.35734 0.0003125 7.29352L0 13.6718C0 13.9815 0.182852 14.2619 0.466172 14.3868C0.567422 14.4314 0.674648 14.4531 0.781133 14.4531C0.972578 14.4531 1.16152 14.3827 1.3084 14.2485C1.3084 14.2485 2.0343 13.4754 2.99984 13.4754C3.32863 13.4754 3.65914 13.5499 3.9659 13.7036C4.95828 14.201 6.04453 14.4531 7.19383 14.4531H7.20094ZM3.00066 11.9125C2.50891 11.9125 2.0198 12.0098 1.56262 12.1997C1.56262 12.1997 1.56285 7.28484 1.56281 7.28234C1.54824 5.76488 2.1323 4.33137 3.20746 3.2459C4.28258 2.16035 5.70996 1.5625 7.22656 1.5625C8.75715 1.5625 10.1872 2.15531 11.2534 3.23176C12.3237 4.31246 12.9051 5.75098 12.8904 7.28238C12.8606 10.3755 10.3032 12.8909 7.19453 12.8906C6.2898 12.8906 5.43898 12.6942 4.66594 12.3068C4.1366 12.0414 3.5668 11.9125 3.00066 11.9125V11.9125Z" fill="#24695C"/>
<path d="M11.25 7.26562C11.25 7.80496 10.8128 8.24219 10.2734 8.24219C9.7341 8.24219 9.29688 7.80496 9.29688 7.26562C9.29688 6.72629 9.7341 6.28906 10.2734 6.28906C10.8128 6.28906 11.25 6.72629 11.25 7.26562ZM8.16406 7.26562C8.16406 7.80496 7.72684 8.24219 7.1875 8.24219C6.64816 8.24219 6.21094 7.80496 6.21094 7.26562C6.21094 6.72629 6.64816 6.28906 7.1875 6.28906C7.72687 6.28906 8.16406 6.72629 8.16406 7.26562ZM5.07812 7.26562C5.07812 7.80496 4.6409 8.24219 4.10156 8.24219C3.56223 8.24219 3.125 7.80496 3.125 7.26562C3.125 6.72629 3.56223 6.28906 4.10156 6.28906C4.64094 6.28906 5.07812 6.72629 5.07812 7.26562Z" fill="#9EDBB7"/>
</g>
<defs>
<clipPath id="clip0_701_7685">
<rect width="20" height="20" fill="white"/>
</clipPath>
</defs>
</svg>
