<svg width="20" height="20" viewBox="0 0 20 20" fill="none" xmlns="http://www.w3.org/2000/svg">
<g clip-path="url(#clip0_525_15804)">
<path d="M4.34574 19.2022C2.34848 19.0291 0.78125 17.3532 0.78125 15.3111V8.73794C0.78125 7.51954 1.34977 6.37091 2.31855 5.632L7.63105 1.58009C9.03012 0.513018 10.9699 0.513018 12.3689 1.58009L12.7283 1.85419C11.7689 1.7595 10.7819 2.01919 9.97484 2.63478L3.65672 7.45368C3.32164 7.70923 3.125 8.10653 3.125 8.52794V16.3657C3.125 17.4828 3.59402 18.4903 4.34574 19.2022V19.2022Z" fill="#24695C" fill-opacity="0.1"/>
<path d="M15.3125 19.9986H4.6875C2.10281 19.9986 0 17.8957 0 15.3111V8.73798C0 7.2852 0.689649 5.89188 1.84477 5.01083L7.15727 0.958916C8.83105 -0.317685 11.1689 -0.317685 12.8427 0.958916L14.5312 2.24563V1.24856C14.5312 0.81708 14.881 0.467314 15.3125 0.467314C15.744 0.467314 16.0938 0.81708 16.0938 1.24856V3.82321C16.0938 4.1202 15.9254 4.39149 15.6592 4.52333C15.393 4.65513 15.0752 4.62458 14.8389 4.44462L11.8954 2.20153C10.7793 1.35028 9.22063 1.35028 8.1048 2.20134L2.7923 6.25325C2.02227 6.84055 1.5625 7.76942 1.5625 8.73798V15.3111C1.5625 17.0342 2.96438 18.4361 4.6875 18.4361H15.3125C17.0356 18.4361 18.4375 17.0342 18.4375 15.3111V8.73798C18.4375 7.75755 17.9829 6.82552 17.2215 6.24473C16.8784 5.98305 16.8125 5.49282 17.0741 5.14977C17.3358 4.80669 17.8261 4.74071 18.1691 5.00239C19.3155 5.87677 20 7.27325 20 8.73798V15.3111C20 17.8957 17.8972 19.9986 15.3125 19.9986V19.9986Z" fill="#24695C"/>
<path d="M9.41406 9.99854C9.41406 10.5379 8.97684 10.9751 8.4375 10.9751C7.89816 10.9751 7.46094 10.5379 7.46094 9.99854C7.46094 9.4592 7.89816 9.02197 8.4375 9.02197C8.97684 9.02197 9.41406 9.4592 9.41406 9.99854ZM11.5625 9.02201C11.0232 9.02201 10.5859 9.45924 10.5859 9.99857C10.5859 10.5379 11.0232 10.9751 11.5625 10.9751C12.1018 10.9751 12.5391 10.5379 12.5391 9.99857C12.5391 9.4592 12.1018 9.02201 11.5625 9.02201V9.02201ZM8.4375 12.147C7.89816 12.147 7.46094 12.5842 7.46094 13.1236C7.46094 13.6629 7.89816 14.1001 8.4375 14.1001C8.97684 14.1001 9.41406 13.6629 9.41406 13.1236C9.41406 12.5842 8.97684 12.147 8.4375 12.147ZM11.5625 12.147C11.0232 12.147 10.5859 12.5842 10.5859 13.1236C10.5859 13.6629 11.0232 14.1001 11.5625 14.1001C12.1018 14.1001 12.5391 13.6629 12.5391 13.1236C12.5391 12.5842 12.1018 12.147 11.5625 12.147Z" fill="#24695C"/>
</g>
<defs>
<clipPath id="clip0_525_15804">
<rect width="20" height="20" fill="white"/>
</clipPath>
</defs>
</svg>
