<svg width="20" height="20" viewBox="0 0 20 20" fill="none" xmlns="http://www.w3.org/2000/svg">
<g clip-path="url(#clip0_701_7591)">
<path d="M3.125 15.3125V4.6875C3.125 2.53012 4.87387 0.78125 7.03125 0.78125L15.3105 0.789883L15.3125 0.78125H4.6875C2.53012 0.78125 0.78125 2.53012 0.78125 4.6875V15.3125C0.78125 17.4698 2.53012 19.2188 4.6875 19.2188L6.72102 19.2065C4.70871 19.0484 3.125 17.3654 3.125 15.3125V15.3125Z" fill="#24695C" fill-opacity="0.1"/>
<path d="M11.1719 20H4.6875C2.10281 20 0 17.8972 0 15.3125V4.6875C0 2.10281 2.10281 0 4.6875 0H15.3125C17.8972 0 20 2.10281 20 4.6875V11.0938C20 11.5252 19.6502 11.875 19.2188 11.875C18.7873 11.875 18.4375 11.5252 18.4375 11.0938V4.6875C18.4375 2.96438 17.0356 1.5625 15.3125 1.5625H4.6875C2.96438 1.5625 1.5625 2.96438 1.5625 4.6875V15.3125C1.5625 17.0356 2.96438 18.4375 4.6875 18.4375H11.1719C11.6034 18.4375 11.9531 18.7873 11.9531 19.2188C11.9531 19.6502 11.6034 20 11.1719 20ZM16.875 5.03906C16.875 4.60758 16.5252 4.25781 16.0938 4.25781H3.90625C3.47477 4.25781 3.125 4.60758 3.125 5.03906C3.125 5.47055 3.47477 5.82031 3.90625 5.82031H16.0938C16.5252 5.82031 16.875 5.47055 16.875 5.03906ZM14.7266 17.6562V15.4688C14.7266 15.038 15.077 14.6875 15.5078 14.6875H17.7344C18.1659 14.6875 18.5156 14.3377 18.5156 13.9062C18.5156 13.4748 18.1659 13.125 17.7344 13.125H15.5078C14.2155 13.125 13.1641 14.1764 13.1641 15.4688V17.6562C13.1641 18.0877 13.5138 18.4375 13.9453 18.4375C14.3768 18.4375 14.7266 18.0877 14.7266 17.6562ZM19.7712 19.7712C20.0763 19.4661 20.0763 18.9714 19.7712 18.6663L17.193 16.0882C16.8879 15.7831 16.3933 15.7831 16.0882 16.0882C15.7831 16.3933 15.7831 16.888 16.0882 17.193L18.6663 19.7712C18.8189 19.9237 19.0188 20 19.2188 20C19.4187 20 19.6186 19.9237 19.7712 19.7712Z" fill="#24695C"/>
<path d="M12.2265 13.3984C12.2265 12.3215 11.2627 11.4453 10.0781 11.4453C9.69951 11.4453 9.414 11.2774 9.414 11.0547C9.414 10.8393 9.58924 10.6641 9.80463 10.6641C10.0821 10.6641 10.4197 10.6955 11.0058 10.9234C11.408 11.0797 11.8608 10.8806 12.0171 10.4785C12.1735 10.0763 11.9743 9.62355 11.5722 9.46719C11.3218 9.36984 11.0991 9.29824 10.8984 9.24531V9.10156C10.8984 8.67008 10.5486 8.32031 10.1171 8.32031C9.68564 8.32031 9.33588 8.67008 9.33588 9.10156V9.15883C8.48463 9.36938 7.85151 10.1393 7.85151 11.0547C7.85151 12.1682 8.80873 13.0078 10.0781 13.0078C10.4081 13.0078 10.664 13.2178 10.664 13.3984C10.664 13.5992 10.4457 13.7891 10.2148 13.7891C10.0515 13.7891 9.49381 13.7358 8.88229 13.4928C8.48139 13.3335 8.02709 13.5293 7.86772 13.9302C7.70834 14.3312 7.90416 14.7854 8.30514 14.9448C8.66268 15.0869 9.01748 15.1852 9.33592 15.2497V15.3516C9.33592 15.783 9.68568 16.1328 10.1172 16.1328C10.5487 16.1328 10.8984 15.783 10.8984 15.3516V15.2307C11.6643 14.9523 12.2265 14.2255 12.2265 13.3984Z" fill="#9EDBB7"/>
</g>
<defs>
<clipPath id="clip0_701_7591">
<rect width="20" height="20" fill="white"/>
</clipPath>
</defs>
</svg>
