<svg width="20" height="20" viewBox="0 0 20 20" fill="none" xmlns="http://www.w3.org/2000/svg">
<g clip-path="url(#clip0_701_7657)">
<path d="M5.23438 5H2.89062C1.72566 5 0.78125 4.05559 0.78125 2.89062C0.78125 1.72563 1.72566 0.78125 2.89062 0.78125H5.23438C4.06941 0.78125 3.125 1.72563 3.125 2.89062C3.125 4.05559 4.06941 5 5.23438 5ZM3.125 10C3.125 8.835 4.06941 7.89062 5.23438 7.89062H2.89062C1.72566 7.89062 0.78125 8.835 0.78125 10C0.78125 11.165 1.72566 12.1094 2.89062 12.1094H5.23438C4.06941 12.1094 3.125 11.165 3.125 10ZM3.125 17.1094C3.125 15.9444 4.06941 15 5.23438 15H2.89062C1.72566 15 0.78125 15.9444 0.78125 17.1094C0.78125 18.2743 1.72566 19.2188 2.89062 19.2188H5.23438C4.06941 19.2188 3.125 18.2743 3.125 17.1094Z" fill="#24695C" fill-opacity="0.1"/>
<path d="M6.14785 5.78125H2.89062C1.29672 5.78125 0 4.48453 0 2.89062C0 1.29672 1.29672 0 2.89062 0H6.17188C6.60336 0 6.95312 0.349766 6.95312 0.78125C6.95312 1.21273 6.60336 1.5625 6.17188 1.5625H2.89062C2.15828 1.5625 1.5625 2.15828 1.5625 2.89062C1.5625 3.62297 2.15828 4.21875 2.89062 4.21875H6.14785C6.57934 4.21875 6.9291 4.56852 6.9291 5C6.9291 5.43148 6.57934 5.78125 6.14785 5.78125ZM20 2.89062C20 1.29672 18.7033 0 17.1094 0H9.29688C8.86539 0 8.51562 0.349766 8.51562 0.78125C8.51562 1.21273 8.86539 1.5625 9.29688 1.5625H17.1094C17.8417 1.5625 18.4375 2.15828 18.4375 2.89062C18.4375 3.62297 17.8417 4.21875 17.1094 4.21875H9.27285C8.84137 4.21875 8.4916 4.56852 8.4916 5C8.4916 5.43148 8.84137 5.78125 9.27285 5.78125H17.1094C18.7033 5.78125 20 4.48453 20 2.89062ZM13.6328 12.1094C13.6328 11.6779 13.283 11.3281 12.8516 11.3281H2.89062C2.15828 11.3281 1.5625 10.7323 1.5625 10C1.5625 9.26766 2.15828 8.67188 2.89062 8.67188H12.8516C13.283 8.67188 13.6328 8.32211 13.6328 7.89062C13.6328 7.45914 13.283 7.10938 12.8516 7.10938H2.89062C1.29672 7.10938 0 8.40609 0 10C0 11.5939 1.29672 12.8906 2.89062 12.8906H12.8516C13.283 12.8906 13.6328 12.5409 13.6328 12.1094ZM19.9609 17.1094C19.9609 15.5155 18.6642 14.2188 17.0703 14.2188H11.2109C10.7795 14.2188 10.4297 14.5685 10.4297 15C10.4297 15.4315 10.7795 15.7812 11.2109 15.7812H17.0703C17.8027 15.7812 18.3984 16.377 18.3984 17.1094C18.3984 17.8417 17.8027 18.4375 17.0703 18.4375H11.2109C10.7795 18.4375 10.4297 18.7873 10.4297 19.2188C10.4297 19.6502 10.7795 20 11.2109 20H17.0703C18.6642 20 19.9609 18.7033 19.9609 17.1094ZM8.86719 19.2188C8.86719 18.7873 8.51742 18.4375 8.08594 18.4375H2.89062C2.15828 18.4375 1.5625 17.8417 1.5625 17.1094C1.5625 16.377 2.15828 15.7812 2.89062 15.7812H8.08594C8.51742 15.7812 8.86719 15.4315 8.86719 15C8.86719 14.5685 8.51742 14.2188 8.08594 14.2188H2.89062C1.29672 14.2188 0 15.5155 0 17.1094C0 18.7033 1.29672 20 2.89062 20H8.08594C8.51742 20 8.86719 19.6502 8.86719 19.2188Z" fill="#24695C"/>
<path d="M17.0703 12.8906H15.9766C15.5451 12.8906 15.1953 12.5409 15.1953 12.1094C15.1953 11.6779 15.5451 11.3281 15.9766 11.3281H17.0703C17.8027 11.3281 18.3984 10.7323 18.3984 10C18.3984 9.26766 17.8027 8.67188 17.0703 8.67188H15.9766C15.5451 8.67188 15.1953 8.32211 15.1953 7.89062C15.1953 7.45914 15.5451 7.10938 15.9766 7.10938H17.0703C18.6642 7.10938 19.9609 8.40609 19.9609 10C19.9609 11.5939 18.6642 12.8906 17.0703 12.8906Z" fill="#6DC893"/>
</g>
<defs>
<clipPath id="clip0_701_7657">
<rect width="20" height="20" fill="white"/>
</clipPath>
</defs>
</svg>
