<svg width="20" height="20" viewBox="0 0 20 20" fill="none" xmlns="http://www.w3.org/2000/svg">
<g clip-path="url(#clip0_701_7631)">
<path d="M3.24219 10.0905C3.19707 5.3898 6.6952 1.46324 11.2291 0.861484C10.8276 0.808828 10.4174 0.78125 10 0.78125C4.8968 0.78125 0.732617 4.97832 0.78168 10.0905L0.78125 19.2188L0.934063 19.0659C1.57133 18.4287 2.39457 18.0234 3.24184 17.874L3.24219 10.0905Z" fill="#24695C" fill-opacity="0.1"/>
<path d="M0.781098 20C0.680434 20 0.57895 19.9805 0.48227 19.9405C0.190356 19.8196 3.81066e-06 19.5347 3.81066e-06 19.2187L0.000433499 10.0943C-0.024254 7.4148 1.00625 4.88477 2.90239 2.97035C4.79954 1.05488 7.32017 0 10 0C12.6998 0 15.2243 1.0477 17.1085 2.95012C18.9988 4.85859 20.0255 7.39711 19.9996 10.0981C19.974 12.758 18.9163 15.25 17.0213 17.1152C15.1311 18.9756 12.6246 20 9.96329 20C9.96013 20 9.95677 20 9.95365 20C8.37939 20 6.87653 19.647 5.48688 18.9505C4.15903 18.2851 2.55141 18.5534 1.48649 19.6184L1.33368 19.7712C1.18426 19.9206 0.98438 20 0.781098 20V20ZM3.95575 17.0254C4.71442 17.0254 5.47767 17.1982 6.18696 17.5536C7.3572 18.1401 8.62478 18.4375 9.95439 18.4375H9.96247C14.5922 18.4378 18.3929 14.6907 18.4371 10.083C18.459 7.80227 17.5929 5.65957 15.9984 4.04965C14.4099 2.44578 12.2796 1.5625 10 1.5625C7.74036 1.5625 5.61395 2.45297 4.01251 4.06988C2.41114 5.68672 1.54118 7.82223 1.5629 10.083C1.5629 10.0855 1.56294 10.0881 1.56294 10.0906L1.56258 17.6323C2.3029 17.232 3.12649 17.0254 3.95575 17.0254V17.0254Z" fill="#24695C"/>
<path d="M7.65625 10C7.65625 10.5393 7.21902 10.9766 6.67969 10.9766C6.14035 10.9766 5.70312 10.5393 5.70312 10C5.70312 9.46066 6.14035 9.02344 6.67969 9.02344C7.21902 9.02344 7.65625 9.46066 7.65625 10ZM10.0391 9.02344C9.49973 9.02344 9.0625 9.46066 9.0625 10C9.0625 10.5393 9.49973 10.9766 10.0391 10.9766C10.5784 10.9766 11.0156 10.5393 11.0156 10C11.0156 9.46066 10.5784 9.02344 10.0391 9.02344ZM13.3984 9.02344C12.8591 9.02344 12.4219 9.46066 12.4219 10C12.4219 10.5393 12.8591 10.9766 13.3984 10.9766C13.9378 10.9766 14.375 10.5393 14.375 10C14.375 9.46066 13.9378 9.02344 13.3984 9.02344Z" fill="#9EDBB7"/>
</g>
<defs>
<clipPath id="clip0_701_7631">
<rect width="20" height="20" fill="white"/>
</clipPath>
</defs>
</svg>
