<svg width="24" height="24" viewBox="0 0 24 24" fill="none" xmlns="http://www.w3.org/2000/svg">
<g clip-path="url(#clip0_516_18310)">
<path d="M11.0641 21.1718C6.41231 20.7027 2.78125 16.7754 2.78125 12C2.78125 6.90863 6.90863 2.78125 12 2.78125C12.397 2.78125 12.7881 2.80637 13.1719 2.85508C8.63383 3.43078 5.125 7.30562 5.125 12C5.125 15.9937 7.66488 19.3938 11.2173 20.6744C11.1658 20.84 11.1146 21.0058 11.0641 21.1718Z" fill="#F0F0F0"/>
<path d="M18.875 12C18.875 12.4315 18.5252 12.7812 18.0938 12.7812H9.39746C9.49902 14.7738 9.98375 16.5399 10.3586 17.7427C10.4869 18.1546 10.257 18.5926 9.84508 18.721C9.76773 18.7451 9.68941 18.7565 9.61242 18.7565C9.27953 18.7565 8.97102 18.5421 8.86676 18.2075C8.46074 16.9045 7.93437 14.9804 7.83309 12.7812H5.90625C5.47477 12.7812 5.125 12.4314 5.125 12C5.125 11.5685 5.47477 11.2187 5.90625 11.2187H7.83687C7.94727 9.05117 8.46941 7.15527 8.87328 5.86645C9.0023 5.45469 9.44074 5.22539 9.85238 5.35457C10.2641 5.48359 10.4933 5.92191 10.3643 6.33367C9.99207 7.52148 9.51211 9.25836 9.40168 11.2188H14.6284C14.5179 9.25836 14.0379 7.52148 13.6658 6.33371C13.5368 5.92195 13.7659 5.48359 14.1777 5.35461C14.5895 5.22574 15.0278 5.4548 15.1568 5.86648C15.5606 7.15531 16.0828 9.05121 16.1932 11.2188H18.0938C18.5252 11.2188 18.875 11.5685 18.875 12ZM19.0711 4.92891C17.1823 3.0402 14.6711 2 12 2C9.32891 2 6.8177 3.0402 4.92891 4.92891C3.0402 6.81766 2 9.32891 2 12C2 14.6711 3.0402 17.1823 4.92891 19.0711C6.8177 20.9598 9.32891 22 12 22C12.3816 22 12.7661 21.9782 13.143 21.9353C13.5718 21.8865 13.8797 21.4994 13.8309 21.0707C13.7821 20.642 13.3949 20.3345 12.9663 20.3829C12.6478 20.4191 12.3227 20.4375 12 20.4375C7.34754 20.4375 3.5625 16.6525 3.5625 12C3.5625 7.34754 7.34754 3.5625 12 3.5625C16.6525 3.5625 20.4375 7.34754 20.4375 12C20.4375 12.2987 20.4218 12.5998 20.3907 12.8947C20.3455 13.3238 20.6567 13.7083 21.0858 13.7535C21.515 13.7986 21.8994 13.4875 21.9446 13.0584C21.9813 12.7093 22 12.3532 22 12C22 9.32891 20.9598 6.81766 19.0711 4.92891Z" fill="#666666"/>
<path d="M15.1641 19.6562C14.7326 19.6562 14.3828 19.3065 14.3828 18.875V16.6875C14.3828 15.3952 15.4342 14.3438 16.7266 14.3438H18.9531C19.3846 14.3438 19.7344 14.6935 19.7344 15.125C19.7344 15.5565 19.3846 15.9062 18.9531 15.9062H16.7266C16.2958 15.9062 15.9453 16.2567 15.9453 16.6875V18.875C15.9453 19.3065 15.5955 19.6562 15.1641 19.6562ZM21.7712 21.7712C22.0763 21.4661 22.0763 20.9714 21.7712 20.6663L18.4118 17.307C18.1067 17.0018 17.612 17.0018 17.307 17.307C17.0019 17.6121 17.0018 18.1068 17.307 18.4118L20.6663 21.7712C20.8189 21.9238 21.0188 22 21.2188 22C21.4187 22 21.6186 21.9238 21.7712 21.7712Z" fill="#C2C2C2"/>
</g>
<defs>
<clipPath id="clip0_516_18310">
<rect width="20" height="20" fill="white" transform="translate(2 2)"/>
</clipPath>
</defs>
</svg>
